<svg width="50" height="48" viewBox="0 0 50 48" fill="none" xmlns="http://www.w3.org/2000/svg">
<g opacity="0.6">
<path fill-rule="evenodd" clip-rule="evenodd" d="M3.61781 0C3.19709 0.00190357 2.85823 0.344567 2.86013 0.765278V22.3761H1.3924C1.19061 22.3761 0.99643 22.456 0.853638 22.6007C0.710861 22.7435 0.632812 22.9377 0.632812 23.1395V25.7095C0.632812 25.9112 0.710866 26.1054 0.853638 26.2482C0.996416 26.3929 1.19059 26.4729 1.3924 26.4729H48.6098C49.0286 26.4709 49.3693 26.1302 49.3674 25.7095V23.1395C49.3694 22.7188 49.0286 22.378 48.6098 22.3761H47.1401V0.765316C47.142 0.344601 46.8032 0.00193963 46.3825 3.89824e-05L3.61781 0ZM4.38309 1.52485H45.6168V22.3759H4.38309V1.52485ZM25.0003 5.54355C24.9089 5.54355 24.8156 5.56068 24.728 5.59495L15.6761 9.04062C15.3829 9.15484 15.1887 9.43659 15.1887 9.75258C15.1887 10.0667 15.3829 10.3504 15.6761 10.4626L18.6668 11.601V15.2238C18.6668 15.793 18.9447 16.3031 19.3236 16.6858C19.7024 17.0684 20.1897 17.3597 20.757 17.6015C21.8935 18.085 23.3651 18.3591 24.9966 18.3591C26.628 18.3591 28.1034 18.0831 29.2399 17.6015C29.8072 17.3597 30.2945 17.0684 30.6733 16.6858C31.0522 16.3032 31.3301 15.793 31.3301 15.2238V11.601L33.2871 10.8567V12.61H33.2909C33.289 12.8137 33.369 13.0079 33.5137 13.1526C33.6564 13.2954 33.8525 13.3753 34.0543 13.3753C34.2561 13.3753 34.4503 13.2935 34.5931 13.1507C34.734 13.006 34.8139 12.8137 34.8139 12.61V9.75448V9.75258C34.8139 9.63645 34.7873 9.52223 34.7378 9.41943C34.7359 9.41753 34.7359 9.41562 34.7339 9.41372C34.7187 9.38136 34.6997 9.3509 34.6787 9.32044C34.5931 9.19289 34.4674 9.0958 34.3247 9.04059L34.3075 9.03298H34.3056C34.298 9.03108 34.2885 9.02727 34.279 9.02536L25.2728 5.5949C25.1872 5.56063 25.0935 5.54355 25.0003 5.54355ZM24.9983 7.11791L31.9182 9.7488L24.9983 12.3854L18.0839 9.7488L24.9983 7.11791ZM20.1915 12.1819L24.7299 13.9105H24.728C24.9051 13.9771 25.0973 13.9771 25.2725 13.9105L29.809 12.1838V15.2259C29.809 15.3135 29.7804 15.4296 29.5958 15.6143C29.413 15.7989 29.0837 16.0179 28.6458 16.2044C27.7682 16.5775 26.4547 16.8402 24.9964 16.8402C23.5401 16.8402 22.2323 16.5794 21.3547 16.2044C20.9149 16.0178 20.5875 15.7989 20.4047 15.6143C20.222 15.4296 20.1896 15.3135 20.1896 15.2259L20.1915 12.1819ZM2.15197 23.8991H47.8444V24.95H2.15197V23.8991ZM10.7473 28.0321C8.20011 28.0321 6.11559 30.1014 6.11559 32.6409C6.11559 34.101 6.80285 35.4089 7.87271 36.256C4.93914 37.4002 2.86037 40.2443 2.86037 43.572V47.2423V47.2404C2.86228 47.6592 3.19923 47.9981 3.61805 48H46.3826C46.8014 47.9981 47.1402 47.6592 47.1402 47.2404V43.5701C47.1402 40.2425 45.0633 37.4003 42.1298 36.2541C43.1997 35.407 43.887 34.0991 43.887 32.639C43.887 30.0976 41.8024 28.0302 39.2553 28.0302C36.7081 28.0302 34.6217 30.0995 34.6217 32.639C34.6217 34.0991 35.3109 35.407 36.3807 36.2541C34.5113 36.9832 32.9884 38.4034 32.1298 40.1986C31.2712 38.4034 29.7464 36.9832 27.875 36.2541C28.9468 35.407 29.6359 34.101 29.6359 32.639C29.6359 30.0976 27.5457 28.0302 24.9985 28.0302C22.4514 28.0302 20.3669 30.0995 20.3669 32.639C20.3669 34.0991 21.0541 35.407 22.124 36.2541C20.2546 36.9832 18.7316 38.4015 17.873 40.1966C17.0145 38.4015 15.4934 36.9832 13.624 36.2541C14.6938 35.407 15.3811 34.0991 15.3811 32.639C15.3811 30.0976 13.2966 28.0302 10.7494 28.0302L10.7473 28.0321ZM10.7473 29.555C12.4758 29.555 13.856 30.9276 13.856 32.6409C13.856 34.2628 12.6205 35.584 11.0233 35.7211C10.9319 35.7173 10.8405 35.7173 10.7473 35.7173C10.6559 35.7173 10.5626 35.7192 10.4712 35.7211C8.87405 35.584 7.63853 34.2628 7.63853 32.6409C7.63853 30.9276 9.0187 29.555 10.7473 29.555ZM24.9982 29.555C26.7268 29.555 28.1126 30.9276 28.1126 32.6409C28.1126 34.2628 26.8714 35.584 25.2723 35.7211C25.181 35.7173 25.0896 35.7173 24.9963 35.7173C24.9049 35.7173 24.8116 35.7192 24.7203 35.7211C23.1231 35.584 21.8876 34.2628 21.8876 32.6409C21.8876 30.9276 23.2677 29.555 24.9963 29.555H24.9982ZM39.255 29.555C40.9836 29.555 42.3637 30.9276 42.3637 32.6409C42.3637 34.2628 41.1282 35.584 39.531 35.7211C39.4396 35.7173 39.3483 35.7173 39.255 35.7173C39.1636 35.7173 39.0703 35.7192 38.9789 35.7211C37.3818 35.584 36.1463 34.2628 36.1463 32.6409C36.1463 30.9276 37.5264 29.555 39.255 29.555ZM10.4446 37.2458C10.5436 37.2515 10.6445 37.2553 10.7473 37.2553C10.8482 37.2553 10.9491 37.2515 11.0481 37.2458C14.4481 37.4 17.1112 40.1547 17.1112 43.5701V46.477H4.38317V43.5701C4.38317 40.1549 7.04641 37.4003 10.4462 37.2458H10.4446ZM24.6956 37.2458C24.7945 37.2515 24.8955 37.2553 24.9982 37.2553C25.0991 37.2553 25.2 37.2515 25.3009 37.2458C28.7009 37.4 31.3679 40.1547 31.3679 43.5701V46.477H18.6341V43.5701C18.6341 40.1549 21.2953 37.4003 24.6956 37.2458ZM38.9523 37.2458C39.0513 37.2515 39.1522 37.2553 39.255 37.2553C39.3559 37.2553 39.4568 37.2515 39.5558 37.2458C42.9558 37.4 45.6189 40.1547 45.6189 43.5701V46.477H32.8909V43.5701C32.8909 40.1549 35.5541 37.4003 38.9539 37.2458H38.9523Z" fill="black"/>
</g>
</svg>
