<svg width="51" height="48" viewBox="0 0 51 48" fill="none" xmlns="http://www.w3.org/2000/svg">
<path d="M50.5982 6.11388C50.5796 5.86903 50.4673 5.64079 50.2848 5.47653L43.8824 0.202477C43.8176 0.14923 43.7456 0.105455 43.6685 0.0724633C43.5555 0.0337888 43.4381 0.00944426 43.3191 3.23177e-08H18.4782C18.3619 -3.14003e-05 18.2466 0.0228663 18.1391 0.0673846C18.0316 0.111903 17.9339 0.17717 17.8516 0.259456C17.7693 0.341742 17.7041 0.439434 17.6595 0.546952C17.615 0.65447 17.5921 0.769706 17.5922 0.886076V7.51363L7.00424 9.74336C6.77485 9.79311 6.57433 9.93132 6.44619 10.128C6.31805 10.3246 6.27264 10.5639 6.3198 10.7939L6.98283 13.9389L1.69039 15.0564C1.46051 15.1049 1.25932 15.2427 1.13104 15.4395C1.00276 15.6364 0.957909 15.8761 1.00634 16.106L7.58181 47.2969C7.63071 47.5266 7.76861 47.7276 7.96534 47.8558C8.16206 47.9841 8.40158 48.0292 8.6315 47.9813L34.6279 42.5083C34.8578 42.4599 35.059 42.3223 35.1873 42.1256C35.3157 41.9289 35.3607 41.6893 35.3124 41.4595L34.7914 38.9674H49.7215C49.8379 38.9675 49.9531 38.9446 50.0606 38.9001C50.1682 38.8556 50.2659 38.7903 50.3482 38.708C50.4305 38.6257 50.4957 38.528 50.5402 38.4205C50.5847 38.313 50.6076 38.1977 50.6076 38.0813C50.5982 38.0348 50.6254 6.15329 50.5982 6.11388ZM44.2051 2.76378L47.2519 5.27404H44.2051V2.76378ZM17.5922 9.32466V38.0814C17.5921 38.1977 17.615 38.313 17.6595 38.4205C17.7041 38.528 17.7693 38.6257 17.8516 38.708C17.9339 38.7903 18.0316 38.8555 18.1391 38.9C18.2466 38.9446 18.3619 38.9675 18.4782 38.9674H22.9189L14.4468 40.7508L8.90418 14.4565C8.89831 14.4275 8.24482 11.3293 8.23772 11.2948L17.5922 9.32466ZM33.3966 40.9568L9.13333 46.0647L2.92302 16.607L7.34846 15.6729L12.8953 41.983C12.9442 42.2127 13.0821 42.4137 13.2788 42.542C13.4755 42.6702 13.715 42.7154 13.9449 42.6675L31.5219 38.9674H32.9812L33.3966 40.9568ZM19.3643 37.1953V1.77214H42.433V6.16012C42.4329 6.2765 42.4558 6.39175 42.5003 6.49929C42.5448 6.60682 42.6101 6.70453 42.6924 6.78682C42.7747 6.86911 42.8724 6.93438 42.9799 6.97888C43.0874 7.02339 43.2027 7.04626 43.3191 7.0462H48.8354V37.1953H19.3643Z" fill="#5D5D5D"/>
<path d="M44.7279 5.97778H22.766C22.534 5.98127 22.3132 6.05282 22.1508 6.17707C21.9884 6.30133 21.8975 6.46838 21.8975 6.64236C21.8975 6.81635 21.9884 6.98339 22.1508 7.10764C22.3132 7.23188 22.5341 7.30342 22.766 7.3069H44.7279C44.9598 7.30342 45.1807 7.23187 45.3431 7.10762C45.5055 6.98337 45.5964 6.81632 45.5964 6.64234C45.5964 6.46836 45.5055 6.30131 45.3431 6.17706C45.1807 6.05281 44.9598 5.98126 44.7279 5.97778Z" fill="#5D5D5D"/>
<path d="M22.766 11.2922H44.2425C44.4744 11.2888 44.6953 11.2172 44.8577 11.093C45.0201 10.9687 45.111 10.8017 45.111 10.6277C45.111 10.4537 45.02 10.2866 44.8576 10.1624C44.6952 10.0381 44.4744 9.96661 44.2424 9.96313H22.766C22.5341 9.96661 22.3132 10.0382 22.1508 10.1624C21.9884 10.2867 21.8975 10.4537 21.8975 10.6277C21.8975 10.8017 21.9884 10.9687 22.1508 11.093C22.3132 11.2172 22.5341 11.2888 22.766 11.2922Z" fill="#5D5D5D"/>
<path d="M44.7279 13.6H22.766C22.534 13.6035 22.3132 13.6751 22.1508 13.7993C21.9884 13.9236 21.8975 14.0906 21.8975 14.2646C21.8975 14.4386 21.9884 14.6056 22.1508 14.7299C22.3132 14.8541 22.5341 14.9257 22.766 14.9292H44.7279C44.9598 14.9257 45.1807 14.8541 45.3431 14.7299C45.5055 14.6056 45.5964 14.4386 45.5964 14.2646C45.5964 14.0906 45.5055 13.9236 45.3431 13.7993C45.1807 13.6751 44.9598 13.6035 44.7279 13.6Z" fill="#5D5D5D"/>
<path d="M44.2425 17.9333H22.766C22.534 17.9368 22.3132 18.0084 22.1508 18.1326C21.9884 18.2569 21.8975 18.4239 21.8975 18.5979C21.8975 18.7719 21.9884 18.939 22.1508 19.0632C22.3132 19.1875 22.5341 19.259 22.766 19.2625H44.2425C44.4744 19.259 44.6953 19.1874 44.8577 19.0632C45.02 18.9389 45.111 18.7719 45.111 18.5979C45.111 18.4239 45.02 18.2569 44.8577 18.1326C44.6953 18.0084 44.4744 17.9368 44.2425 17.9333Z" fill="#5D5D5D"/>
<path d="M44.2365 21.9186H22.7699C22.5379 21.9221 22.3171 21.9937 22.1547 22.1179C21.9923 22.2422 21.9014 22.4092 21.9014 22.5832C21.9014 22.7572 21.9923 22.9243 22.1547 23.0485C22.3171 23.1727 22.538 23.2443 22.7699 23.2478H44.2365C44.4684 23.2443 44.6893 23.1727 44.8516 23.0485C45.014 22.9242 45.105 22.7572 45.105 22.5832C45.105 22.4092 45.014 22.2422 44.8516 22.1179C44.6893 21.9937 44.4684 21.9221 44.2365 21.9186Z" fill="#5D5D5D"/>
</svg>
