<svg width="52" height="48" viewBox="0 0 52 48" fill="none" xmlns="http://www.w3.org/2000/svg">
<g opacity="0.6">
<path fill-rule="evenodd" clip-rule="evenodd" d="M21.5678 9.47921H7.12497C5.42379 9.47921 4.0429 10.8601 4.0429 12.559V33.7642H0.928334C0.41543 33.7642 0 34.1796 0 34.6925V36.3496C0 37.5797 0.487374 38.761 1.36003 39.6313C2.23032 40.5016 3.41164 40.9913 4.64167 40.9913H32.6242V47.0717C32.6242 47.5846 33.0396 48 33.5525 48H51.0587C51.5716 48 51.987 47.5846 51.987 47.0717V38.4799C51.987 35.5254 49.6383 33.1165 46.7048 33.0213C48.6032 31.652 49.8425 29.4194 49.8425 26.9011C49.8425 22.7422 46.4657 19.3651 42.3065 19.3651C41.8424 19.3651 41.3875 19.4069 40.9465 19.4881V17.6547H42.7545C44.2932 17.6547 45.5395 16.4084 45.5395 14.8697V2.785C45.5395 1.24863 44.2932 0 42.7545 0H24.3524C22.8137 0 21.5674 1.24863 21.5674 2.785L21.5678 9.47921ZM50.1302 38.4801V46.1432H34.4807V38.4801C34.4807 36.4888 36.096 34.8758 38.0872 34.8758H46.5234C48.5147 34.8758 50.1302 36.4888 50.1302 38.4801ZM33.432 35.6208H1.85679V36.3496C1.85679 37.0876 2.14921 37.7955 2.6714 38.3176C3.19591 38.8398 3.90376 39.1346 4.64179 39.1346H32.6243V38.4801C32.6243 37.4311 32.9214 36.454 33.432 35.6208ZM21.5678 11.3356H7.12497C6.4473 11.3356 5.89957 11.8833 5.89957 12.5587V23.3832C6.03186 23.2277 6.16878 23.0792 6.315 22.9353C7.0623 22.1856 7.94887 21.6077 8.9097 21.2202C7.85838 20.2826 7.1923 18.9133 7.1923 17.3931C7.1923 14.564 9.49225 12.2641 12.3213 12.2641C15.1504 12.2641 17.4481 14.564 17.4481 17.3931C17.4481 19.0154 16.6961 20.4613 15.5171 21.4012C16.7982 21.6774 19.1747 22.188 20.1217 22.3922L25.2739 18.6905C26.3531 17.9153 27.8408 18.0546 28.7575 19.0177H28.7598C29.3076 19.5933 29.5884 20.3707 29.535 21.1622C29.4816 21.9536 29.0987 22.687 28.4814 23.1836C26.7384 24.5808 24.0393 26.7438 22.7234 27.7974C22.0225 28.3614 21.1057 28.5865 20.2192 28.4101L19.5462 28.2755L19.5485 33.7643H35.3281C36.0893 33.3187 36.9689 33.0518 37.9065 33.0216C36.0058 31.6523 34.7688 29.4197 34.7688 26.9014C34.7688 23.8936 36.5373 21.2943 39.0902 20.0849V17.655H36.9318L30.8069 20.7162C30.5191 20.8601 30.1779 20.8438 29.9064 20.6744C29.6325 20.505 29.4654 20.2079 29.4654 19.8853V17.655H24.3526C22.8139 17.655 21.5676 16.4087 21.5676 14.87L21.5678 11.3356ZM10.1004 33.713H17.6916V28.4146C17.6916 28.0363 17.6545 27.6626 17.5849 27.2982C17.5269 26.9942 17.622 26.6809 17.8425 26.4628C18.0607 26.2446 18.374 26.1495 18.678 26.2098L20.581 26.5881C20.9292 26.6577 21.2866 26.5695 21.5627 26.349C22.8786 25.2954 25.5778 23.1323 27.3184 21.7352C27.5319 21.5635 27.6642 21.3105 27.6828 21.0367C27.7013 20.7651 27.6039 20.4959 27.4159 20.2986C27.135 20.0039 26.6848 19.9644 26.3576 20.1988L20.8711 24.1396C20.6576 24.2928 20.3907 24.3485 20.1308 24.2928C20.1308 24.2928 14.0225 22.956 13.9827 22.9398C13.2934 22.6659 12.5531 22.5197 11.7964 22.5197H11.7941C10.2322 22.5197 8.73065 23.1417 7.62592 24.2464C6.52119 25.3511 5.89925 26.8526 5.89925 28.4146V33.713H8.24328V31.0418C8.24328 30.5289 8.65871 30.1134 9.17162 30.1134C9.68452 30.1134 10.0999 30.5289 10.0999 31.0418L10.1004 33.713ZM42.3066 21.2226C45.4397 21.2226 47.9857 23.7662 47.9857 26.9017C47.9857 30.0371 45.4397 32.5831 42.3066 32.5831C39.1712 32.5831 36.6252 30.0371 36.6252 26.9017C36.6252 23.7662 39.1712 21.2226 42.3066 21.2226ZM12.3213 14.1209C14.1269 14.1209 15.5913 15.5877 15.5913 17.3933C15.5913 19.1989 14.1269 20.6633 12.3213 20.6633C10.5156 20.6633 9.0489 19.1989 9.0489 17.3933C9.0489 15.5876 10.5157 14.1209 12.3213 14.1209ZM23.4244 2.78599C23.4244 2.27309 23.8399 1.85766 24.3528 1.85766H42.7549C43.2655 1.85766 43.6832 2.27309 43.6832 2.78599V14.8707C43.6832 15.3813 43.2655 15.799 42.7549 15.799H36.7113C36.5675 15.799 36.4259 15.8315 36.2959 15.8965L31.3224 18.3844V16.7273C31.3224 16.2144 30.9069 15.799 30.394 15.799H24.3529C23.84 15.799 23.4245 15.3812 23.4245 14.8707L23.4244 2.78599Z" fill="black"/>
<path fill-rule="evenodd" clip-rule="evenodd" d="M39.8721 5.52881H38.2939C37.781 5.52881 37.3633 5.94656 37.3633 6.45714C37.3633 6.97005 37.781 7.38779 38.2939 7.38779H39.8721C40.385 7.38779 40.8004 6.97005 40.8004 6.45714C40.8004 5.94656 40.385 5.52881 39.8721 5.52881Z" fill="black"/>
<path fill-rule="evenodd" clip-rule="evenodd" d="M35.1308 5.52881H27.233C26.7224 5.52881 26.3047 5.94656 26.3047 6.45714C26.3047 6.97005 26.7224 7.38779 27.233 7.38779H35.1308C35.6437 7.38779 36.0615 6.97005 36.0615 6.45714C36.0615 5.94656 35.6437 5.52881 35.1308 5.52881Z" fill="black"/>
<path fill-rule="evenodd" clip-rule="evenodd" d="M39.8722 10.2705H27.235C26.7221 10.2705 26.3066 10.6859 26.3066 11.1988C26.3066 11.7094 26.7221 12.1272 27.235 12.1272H39.8722C40.3851 12.1272 40.8005 11.7094 40.8005 11.1988C40.8005 10.6859 40.3851 10.2705 39.8722 10.2705Z" fill="black"/>
</g>
</svg>
