<svg width="50" height="48" viewBox="0 0 50 48" fill="none" xmlns="http://www.w3.org/2000/svg">
<g opacity="0.6">
<path d="M6.25105 4C2.81027 4 0 6.80793 0 10.2487V37.749C0 41.1921 2.81027 44 6.25105 44H43.7525C47.1933 44 50.0036 41.1921 50.0036 37.7514V10.2487C50.0036 6.80787 47.1933 4 43.7525 4H6.25105ZM6.25105 6.5009H43.7525C45.8526 6.49856 47.5027 8.15097 47.5027 10.2487V16.4998H2.5009V10.2487C2.5009 8.15097 4.15097 6.49856 6.25105 6.49856V6.5009ZM2.5009 19.0006H47.5027V37.7514C47.5027 39.8491 45.8526 41.5015 43.7525 41.5015H6.25105C4.15097 41.5015 2.5009 39.8491 2.5009 37.7514V19.0006Z" fill="black"/>
<path d="M25.0022 21.4992C24.3108 21.4992 23.7529 22.0594 23.7529 22.7484V35.1473L19.534 31.7745C19.2739 31.5683 18.9434 31.4722 18.6153 31.5097C18.2848 31.5448 17.9824 31.7113 17.7762 31.9691C17.3426 32.5082 17.4316 33.2957 17.9707 33.727L24.2218 38.7264C24.6788 39.092 25.3281 39.092 25.7851 38.7264L32.0362 33.727C32.5753 33.2957 32.6644 32.5082 32.2307 31.9691C31.7995 31.43 31.012 31.3409 30.4728 31.7745L26.2516 35.1473V22.7508C26.2516 22.0594 25.6936 21.4992 25.0022 21.4992Z" fill="black"/>
<path d="M7.50051 8.99939C6.13642 8.99939 5.00195 10.1338 5.00195 11.5003C5.00195 12.8644 6.13636 13.9988 7.50051 13.9988C8.86695 13.9988 10.0014 12.8644 10.0014 11.5003C10.0014 10.1339 8.86701 8.99939 7.50051 8.99939Z" fill="black"/>
<path d="M15.0005 8.99939C13.6364 8.99939 12.502 10.1338 12.502 11.5003C12.502 12.8644 13.6364 13.9988 15.0005 13.9988C16.3669 13.9988 17.5014 12.8644 17.5014 11.5003C17.5014 10.1339 16.367 8.99939 15.0005 8.99939Z" fill="black"/>
<path d="M22.5009 8.99939C21.1345 8.99939 20 10.1338 20 11.5003C20 12.8667 21.1344 14.0012 22.5009 14.0012C23.8673 14.0012 25.0018 12.8668 25.0018 11.5003C25.0018 10.1339 23.8674 8.99939 22.5009 8.99939Z" fill="black"/>
</g>
</svg>
