<svg width="40" height="33" viewBox="0 0 40 33" fill="none" xmlns="http://www.w3.org/2000/svg">
<path d="M38.8 8.70245L20.8 0.702444C20.2 0.502444 19.6 0.502444 19.2 0.702444L1.2 8.70245C0.4 8.90244 0 9.70244 0 10.5024C0 11.3024 0.4 12.1024 1.2 12.3024L4 13.5024V22.5024C4 23.3024 4.4 24.1024 5.2 24.3024L19.2 30.3024C19.4 30.5024 19.8 30.5024 20 30.5024C20.2 30.5024 20.6 30.5024 20.8 30.3024L26 28.1024V30.5024C26 31.7024 26.8 32.5024 28 32.5024C29.2 32.5024 30 31.7024 30 30.5024V26.3024L34.8 24.3024C35.6 23.9024 36 23.3024 36 22.5024V13.5024L38.8 12.3024C39.6 12.1024 40 11.3024 40 10.5024C40 9.70244 39.6 8.90244 38.8 8.70245ZM20 4.70244L33 10.5024L20 16.3024L7 10.5024L20 4.70244ZM20 26.3024L8 21.1024V15.5024L19.2 20.3024C19.4 20.3024 19.6 20.5024 19.8 20.5024C19.8 20.5024 19.8 20.5024 20 20.5024C20.2 20.5024 20 20.5024 20.2 20.5024C20.4 20.5024 20.6 20.5024 20.8 20.3024L26 18.1024V23.7024L20 26.3024ZM32 21.1024L30 21.9024V16.5024C30 16.5024 30 16.5024 30 16.3024L32 15.5024V21.1024Z" fill="black"/>
</svg>
