<svg width="32" height="33" viewBox="0 0 32 33" fill="none" xmlns="http://www.w3.org/2000/svg">
<path d="M4 24.2553C3.8921 24.2553 3.7837 24.2319 3.6821 24.185C3.4184 24.061 3.25 23.7963 3.25 23.5053V20.0551H3C1.4834 20.0551 0.25 18.8217 0.25 17.3051V3.70448C0.25 2.18788 1.4834 0.954483 3 0.954483H21C22.5166 0.954483 23.75 2.18788 23.75 3.70448V6.70448C23.75 7.11858 23.4141 7.45448 23 7.45448C22.5859 7.45448 22.25 7.11858 22.25 6.70448V3.70448C22.25 3.01498 21.6895 2.45448 21 2.45448H3C2.3105 2.45448 1.75 3.01498 1.75 3.70448V17.3051C1.75 17.9946 2.3105 18.5551 3 18.5551H4C4.4141 18.5551 4.75 18.891 4.75 19.3051V21.9018L5.5195 21.2592C5.8374 20.9955 6.3105 21.0365 6.5757 21.3549C6.8413 21.6723 6.7988 22.1459 6.4805 22.4115L4.4805 24.0814C4.3433 24.1957 4.1724 24.2553 4 24.2553Z" fill="black"/>
<path d="M20.0003 24.7639C20.6741 24.7639 21.2203 24.2177 21.2203 23.5439C21.2203 22.8701 20.6741 22.3239 20.0003 22.3239C19.3265 22.3239 18.7803 22.8701 18.7803 23.5439C18.7803 24.2177 19.3265 24.7639 20.0003 24.7639Z" fill="black"/>
<path d="M28 32.2553C27.8276 32.2553 27.6572 32.1957 27.52 32.0815L22.6885 28.0551H11C9.4834 28.0551 8.25 26.8217 8.25 25.3051V11.7045C8.25 10.1879 9.4834 8.95448 11 8.95448H29C30.5166 8.95448 31.75 10.1879 31.75 11.7045V25.3051C31.75 26.8217 30.5166 28.0551 29 28.0551H28.75V31.5053C28.75 31.7963 28.5815 32.061 28.3179 32.185C28.2168 32.2319 28.1079 32.2553 28 32.2553ZM11 10.4545C10.3105 10.4545 9.75 11.015 9.75 11.7045V25.3051C9.75 25.9946 10.3105 26.5551 11 26.5551H22.96C23.1353 26.5551 23.3052 26.6166 23.44 26.7289L27.2501 29.9037V27.3051C27.2501 26.891 27.586 26.5551 28.0001 26.5551H29.0001C29.6896 26.5551 30.2501 25.9946 30.2501 25.3051V11.7045C30.2501 11.015 29.6896 10.4545 29.0001 10.4545H11Z" fill="black"/>
<path d="M20 21.0141C19.5859 21.0141 19.25 20.6782 19.25 20.2641V13.2641C19.25 12.85 19.5859 12.5141 20 12.5141C20.4141 12.5141 20.75 12.85 20.75 13.2641V20.2641C20.75 20.6782 20.4141 21.0141 20 21.0141Z" fill="black"/>
</svg>
