<svg width="32" height="33" viewBox="0 0 32 33" fill="none" xmlns="http://www.w3.org/2000/svg">
<path d="M31.5243 29.3273L22.8778 20.6809C24.5833 18.5052 25.6015 15.7702 25.6015 12.8008C25.6028 5.74084 19.862 0 12.802 0C5.74212 0 0 5.74084 0 12.8008C0 19.8607 5.74084 25.6015 12.8008 25.6015C15.7201 25.6015 18.4122 24.6184 20.5656 22.9681L29.2259 31.6284C29.5444 31.9469 29.9595 32.1049 30.3745 32.1049C30.7896 32.1049 31.2059 31.9456 31.5232 31.6284C32.1589 30.9926 32.1589 29.9631 31.5232 29.3311L31.5243 29.3273ZM12.801 22.3502C7.53683 22.3502 3.25183 18.0652 3.25183 12.8011C3.25183 7.53696 7.53683 3.25196 12.801 3.25196C18.0651 3.25196 22.3501 7.53696 22.3501 12.8011C22.3501 18.0652 18.0651 22.3502 12.801 22.3502Z" fill="black"/>
</svg>
