<svg width="24" height="24" viewBox="0 0 24 24" fill="none" xmlns="http://www.w3.org/2000/svg">
<g clip-path="url(#clip0_132_2380)">
<path d="M5.486 2.82948e-08C3.566 2.82948e-08 2.605 2.98023e-08 1.871 0.373C1.22603 0.701646 0.701646 1.22603 0.373 1.871C-0.000999987 2.605 2.82948e-08 3.566 2.82948e-08 5.486V15.086C2.82948e-08 17.006 2.98023e-08 17.966 0.373 18.699C0.702 19.344 1.226 19.869 1.871 20.197C2.605 20.571 3.566 20.572 5.486 20.572H17.143V24L17.936 23.604C20.137 22.503 21.236 21.952 22.041 21.131C22.7522 20.4056 23.2933 19.5312 23.625 18.571C24 17.483 24 16.251 24 13.79V5.486C24 3.566 24 2.605 23.627 1.871C23.2984 1.22603 22.774 0.701646 22.129 0.373C21.395 -0.000999987 20.434 2.82948e-08 18.514 2.82948e-08H5.486ZM6.857 10.285H17.143C17.1462 11.649 16.6074 12.9584 15.6451 13.9252C14.6829 14.8919 13.376 15.4368 12.012 15.44C10.648 15.4432 9.33858 14.9044 8.37183 13.9421C7.40508 12.9799 6.86018 11.673 6.857 10.309V10.285Z" fill="#8073E5"/>
</g>
<defs>
<clipPath id="clip0_132_2380">
<rect width="24" height="24" fill="white"/>
</clipPath>
</defs>
</svg>
