<svg width="40" height="40" viewBox="0 0 40 40" fill="none" xmlns="http://www.w3.org/2000/svg">
<circle cx="20.7143" cy="20.7143" r="19.2857" fill="#1D164F"/>
<circle cx="19.2857" cy="19.2857" r="19.2857" fill="#FFC224"/>
<path d="M23.3894 20.1281C23.6025 19.9026 23.7213 19.6041 23.7213 19.2939C23.7213 18.9837 23.6026 18.6853 23.3896 18.4598C23.3895 18.4598 23.3895 18.4597 23.3894 18.4596L17.3202 12.0327C17.2119 11.9156 17.0816 11.8209 16.9366 11.7542C16.7905 11.6869 16.6325 11.6493 16.4717 11.6436C16.311 11.6378 16.1507 11.6641 16.0002 11.7209C15.8496 11.7777 15.7119 11.8638 15.5949 11.9742L15.9382 12.3377L15.5949 11.9742C15.478 12.0847 15.3841 12.2172 15.3188 12.3643L15.7758 12.5672L15.3188 12.3643C15.2535 12.5113 15.2181 12.6698 15.2146 12.8306C15.2111 12.9915 15.2396 13.1514 15.2984 13.3011C15.3568 13.4496 15.4438 13.5852 15.5546 13.7L20.8369 19.2938L15.5527 24.8883C15.4431 25.0042 15.3575 25.1406 15.3006 25.2896C15.2438 25.4386 15.2169 25.5973 15.2214 25.7568C15.2259 25.9162 15.2618 26.0732 15.3269 26.2187C15.3921 26.3643 15.4853 26.4956 15.6012 26.6051C15.7171 26.7147 15.8535 26.8003 16.0025 26.8571C16.1515 26.914 16.3103 26.9409 16.4697 26.9364C16.6291 26.9319 16.7861 26.896 16.9317 26.8309C17.0772 26.7657 17.2085 26.6725 17.318 26.5566L17.3181 26.5565L23.3894 20.1281ZM23.3894 20.1281L23.0261 19.7846M23.3894 20.1281L23.3896 20.1279L23.0261 19.7846M23.0261 19.7846C23.1515 19.6519 23.2213 19.4764 23.2213 19.2939C23.2213 19.1113 23.1515 18.9358 23.0261 18.8031M23.0261 19.7846L23.0261 18.8031M23.0261 18.8031L16.9546 12.3739C16.8906 12.3042 16.8134 12.2479 16.7275 12.2083C16.6415 12.1687 16.5485 12.1466 16.454 12.1432C16.3594 12.1399 16.2651 12.1553 16.1766 12.1887L23.0261 18.8031Z" fill="#1C1A4A" stroke="#1C1A4A"/>
</svg>
