<svg width="179" height="34" viewBox="0 0 179 34" fill="none" xmlns="http://www.w3.org/2000/svg">
<path d="M9.23333 1.20386H16.8913C30.7632 1.20386 37.9836 18.141 28.0063 28.1453C25.1619 30.9974 21.2235 32.7964 16.8913 32.7964H14.7908V29.1545H16.8913C27.5249 29.1545 33.1262 16.1226 25.4682 8.39994C23.2802 6.20601 20.2608 4.84578 16.8913 4.84578H11.0275V8.61933H16.8913C24.243 8.61933 28.0938 17.6144 22.7989 22.9237C21.2673 24.4595 19.2106 25.3809 16.8913 25.3809H7.39542V16.0348H11.0275V21.739H16.8913C21.0485 21.739 23.2365 16.6491 20.2171 13.6654C19.3419 12.7878 18.1603 12.2613 16.8913 12.2613H3.63207V32.7964H0V8.61933C2.45055 8.61933 4.94486 8.61933 7.39542 8.61933V1.20386H9.23333Z" fill="#E9E6FF"/>
<path d="M7.41504 32.5887H11.0569V28.9705H7.41504V32.5887Z" fill="#6452EA"/>
<path d="M0 4.82211H3.64191V1.20386H0V4.82211Z" fill="#FF7468"/>
<path d="M47.3466 28H40.6435V9.09091H47.402C49.304 9.09091 50.9413 9.46946 52.3139 10.2266C53.6866 10.9775 54.7422 12.0578 55.4808 13.4673C56.2256 14.8769 56.598 16.5634 56.598 18.527C56.598 20.4967 56.2256 22.1894 55.4808 23.6051C54.7422 25.0208 53.6804 26.1072 52.2955 26.8643C50.9167 27.6214 49.267 28 47.3466 28ZM44.6413 24.5746H47.1804C48.3622 24.5746 49.3563 24.3653 50.1626 23.9467C50.9751 23.522 51.5845 22.8665 51.9908 21.9801C52.4032 21.0876 52.6094 19.9366 52.6094 18.527C52.6094 17.1297 52.4032 15.9879 51.9908 15.1016C51.5845 14.2152 50.9782 13.5627 50.1719 13.1442C49.3655 12.7256 48.3714 12.5163 47.1896 12.5163H44.6413V24.5746Z" fill="#FF6464"/>
<path d="M62.8187 28H58.5346L65.0623 9.09091H70.2143L76.7328 28H72.4487L67.7122 13.4119H67.5645L62.8187 28ZM62.551 20.5675H72.6703V23.6882H62.551V20.5675ZM75.978 12.3871V9.09091H91.5078V12.3871H85.7188V28H81.767V12.3871H75.978ZM95.014 28H90.7299L97.2576 9.09091H102.41L108.928 28H104.644L99.9075 13.4119H99.7598L95.014 28ZM94.7463 20.5675H104.866V23.6882H94.7463V20.5675ZM128.038 28V9.09091H132.036V24.7038H140.142V28H128.038ZM146.532 28H142.248L148.775 9.09091H153.927L160.446 28H156.162L151.425 13.4119H151.277L146.532 28ZM146.264 20.5675H156.383V23.6882H146.264V20.5675ZM159.684 9.09091H164.162L168.474 17.2344H168.658L172.97 9.09091H177.448L170.551 21.3153V28H166.581V21.3153L159.684 9.09091Z" fill="white"/>
<path d="M111.204 28V9.09091H118.664C120.098 9.09091 121.32 9.36482 122.33 9.91264C123.339 10.4543 124.109 11.2083 124.638 12.1747C125.173 13.1349 125.441 14.2429 125.441 15.4986C125.441 16.7543 125.17 17.8622 124.629 18.8224C124.087 19.7827 123.302 20.5305 122.274 21.0661C121.253 21.6016 120.015 21.8693 118.563 21.8693H113.808V18.6655H117.916C118.686 18.6655 119.32 18.5331 119.818 18.2685C120.323 17.9976 120.699 17.6252 120.945 17.1513C121.197 16.6712 121.323 16.1203 121.323 15.4986C121.323 14.8707 121.197 14.3229 120.945 13.8551C120.699 13.3812 120.323 13.0149 119.818 12.7564C119.314 12.4917 118.673 12.3594 117.898 12.3594H115.202V28H111.204Z" fill="#8073E5"/>
</svg>
