<svg width="15" height="17" viewBox="0 0 15 17" fill="none" xmlns="http://www.w3.org/2000/svg">
<path d="M4.6275 1.09558C5.53881 0.690539 6.51454 0.481432 7.5 0.47998C8.4825 0.47998 9.4575 0.69058 10.3725 1.09558C11.28 1.50058 12.105 2.09998 12.8025 2.85328C13.5 3.60658 14.055 4.49758 14.43 5.47768C14.805 6.46588 15 7.51888 15 8.57998C15 10.7265 14.2125 12.792 12.8025 14.3067C12.1069 15.0598 11.2804 15.6572 10.3704 16.0644C9.46046 16.4717 8.48499 16.6809 7.5 16.68C6.51454 16.6785 5.53881 16.4694 4.6275 16.0644C3.71832 15.6568 2.89254 15.0595 2.1975 14.3067C1.50015 13.5554 0.947048 12.6628 0.569941 11.68C0.192835 10.6973 -0.000850531 9.64377 2.80748e-06 8.57998C2.80748e-06 6.43348 0.787503 4.36798 2.1975 2.85328C2.895 2.09998 3.72 1.50058 4.6275 1.09558ZM7.5 12.63L8.67 9.85978L11.25 8.57998L8.67 7.31638L7.5 4.52998L6.3225 7.31638L3.75 8.57998L6.3225 9.85978L7.5 12.63Z" fill="black"/>
</svg>
