<?xml version="1.0" encoding="UTF-8" standalone="no"?>
<svg xmlns="http://www.w3.org/2000/svg" version="1.2" baseProfile="tiny" viewBox="0.00 0.00 131.00 144.00">
<path fill="#000000" d="
  M 131.00 16.39
  L 131.00 106.57
  Q 126.56 117.17 116.33 121.13
  C 107.31 124.62 99.39 119.80 91.33 127.64
  Q 85.77 133.06 80.29 138.56
  C 75.13 143.72 65.82 145.23 59.14 141.73
  Q 56.61 140.40 51.82 135.74
  Q 46.74 130.79 41.74 125.77
  C 37.51 121.53 30.02 123.35 24.12 122.51
  C 14.43 121.12 6.22 114.31 3.46 104.87
  Q 2.53 101.67 2.52 95.53
  Q 2.48 63.25 2.50 30.97
  Q 2.51 21.58 3.50 18.12
  C 5.83 9.96 12.82 3.39 21.04 1.23
  Q 24.34 0.37 32.56 0.37
  Q 66.56 0.40 100.55 0.36
  Q 111.58 0.35 116.01 1.88
  Q 126.12 5.39 131.00 16.39
  Z
  M 121.25 19.28
  C 118.96 14.02 113.64 10.46 107.75 10.45
  Q 69.84 10.38 31.93 10.37
  C 23.68 10.37 17.24 11.46 13.89 19.07
  Q 12.48 22.27 12.49 29.14
  Q 12.52 61.36 12.49 93.60
  Q 12.48 100.96 13.94 104.20
  C 17.83 112.86 25.77 112.79 34.26 112.77
  C 45.05 112.74 53.22 123.06 60.35 129.99
  C 66.08 135.56 70.14 134.53 75.60 129.00
  C 81.88 122.65 89.99 113.09 99.58 112.85
  C 108.59 112.61 116.82 113.49 121.12 104.03
  Q 122.48 101.05 122.49 95.26
  Q 122.52 62.08 122.49 28.91
  Q 122.49 22.15 121.25 19.28
  Z"
/>
<path fill="#000000" d="
  M 82.30 47.87
  C 91.07 47.91 103.98 45.71 105.70 57.64
  Q 106.11 60.49 104.74 64.72
  Q 101.53 74.60 98.28 84.44
  C 94.75 95.07 91.22 99.31 79.97 99.38
  C 74.02 99.42 64.39 100.45 59.73 96.52
  Q 57.14 94.34 54.41 92.35
  Q 53.99 92.05 53.61 92.41
  C 49.87 95.99 44.23 96.04 38.99 95.45
  C 29.88 94.43 29.17 88.43 29.15 80.21
  Q 29.11 64.86 29.34 49.50
  Q 29.49 39.59 39.27 38.76
  Q 45.71 38.22 48.50 38.78
  Q 50.83 39.24 53.44 41.39
  Q 53.85 41.73 54.15 41.28
  C 57.29 36.51 61.44 28.79 65.75 26.15
  C 72.83 21.83 82.59 27.17 83.26 35.33
  C 83.53 38.62 82.25 43.41 81.83 47.34
  Q 81.77 47.87 82.30 47.87
  Z
  M 76.59 57.11
  C 71.26 54.65 71.16 50.77 71.99 45.19
  Q 72.59 41.09 73.24 37.00
  Q 73.49 35.39 72.19 34.82
  A 1.69 1.69 0.0 0 0 70.11 35.42
  L 56.80 55.28
  Q 56.50 55.72 56.50 56.25
  L 56.50 80.74
  Q 56.50 81.27 56.92 81.60
  L 65.90 88.60
  A 3.51 3.50 64.3 0 0 67.98 89.33
  Q 74.74 89.43 82.00 89.33
  Q 86.15 89.27 87.12 86.33
  Q 91.44 73.17 95.67 60.23
  Q 96.42 57.93 94.00 57.91
  Q 86.75 57.86 79.01 57.67
  Q 77.73 57.63 76.59 57.11
  Z
  M 46.50 49.36
  A 0.87 0.87 0.0 0 0 45.63 48.49
  L 39.99 48.49
  A 0.87 0.87 0.0 0 0 39.12 49.36
  L 39.12 84.74
  A 0.87 0.87 0.0 0 0 39.99 85.61
  L 45.63 85.61
  A 0.87 0.87 0.0 0 0 46.50 84.74
  L 46.50 49.36
  Z"
/>
</svg>
