<svg width="32" height="32" viewBox="0 0 32 32" fill="none" xmlns="http://www.w3.org/2000/svg">
<style>
path {
    fill: #212830;
}
@media (prefers-color-scheme: dark) {
    path {
    fill: white;
    }
}
</style>
<rect width="32" height="32" fill="white"/>
<path d="M9.61434 1H16.7589C29.7008 1 36.4372 16.9408 27.1288 26.3566C24.4751 29.041 20.8007 30.7342 16.7589 30.7342H14.7993V27.3065H16.7589C26.6797 27.3065 31.9055 15.0411 24.7609 7.77278C22.7196 5.70791 19.9025 4.42769 16.7589 4.42769H11.2882V7.97927H16.7589C23.6177 7.97927 27.2104 16.4453 22.2705 21.4422C20.8415 22.8877 18.9227 23.7549 16.7589 23.7549H7.89963V14.9585H11.2882V20.3272H16.7589C20.6374 20.3272 22.6787 15.5367 19.8617 12.7285C19.0452 11.9025 17.9429 11.407 16.7589 11.407H4.38858V30.7342H1V7.97927C3.28627 7.97927 5.61336 7.97927 7.89963 7.97927V1H9.61434Z"/>
<path d="M7.91797 30.5386H11.3157V27.1332H7.91797V30.5386Z" fill="#6452EA"/>
<path d="M1 4.40542H4.39776V1H1V4.40542Z" fill="#FF7468"/>
</svg>
