<svg width="20" height="20" viewBox="0 0 20 20" fill="none" xmlns="http://www.w3.org/2000/svg">
<path d="M19.8008 10.2084C19.8008 9.39246 19.7282 8.79407 19.5832 8.15942H10.1904V11.8766H15.7028C15.594 12.8014 14.9956 14.1795 13.6538 15.1224L13.6356 15.2493L16.6094 17.5522L16.8089 17.5703C18.7128 15.8296 19.8008 13.2547 19.8008 10.2084Z" fill="#4877BB"/>
<path d="M10.1903 20.0001C12.8921 20.0001 15.1587 19.1116 16.8088 17.5703L13.6537 15.1224C12.8015 15.7026 11.6772 16.1197 10.1903 16.1197C7.54296 16.1197 5.29451 14.3789 4.49667 11.9673L4.38787 11.9854L1.30531 14.3789L1.26904 14.4877C2.90099 17.7516 6.29181 20.0001 10.1903 20.0001Z" fill="#21A849"/>
<path d="M4.49668 11.9686C4.27908 11.3521 4.17028 10.6812 4.17028 9.99216C4.17028 9.30312 4.29721 8.63221 4.49668 8.01569V7.88876L1.37785 5.45898L1.26905 5.51338C0.598137 6.87333 0.199219 8.39648 0.199219 10.0103C0.199219 11.6241 0.580005 13.1472 1.26905 14.5072L4.49668 11.9686Z" fill="#FBBA10"/>
<path d="M10.1904 3.86252C12.0762 3.86252 13.3274 4.67849 14.0527 5.3494L16.8814 2.59323C15.1406 0.97942 12.8922 0.000244141 10.1904 0.000244141C6.27374 0.000244141 2.90105 2.24871 1.25098 5.51259L4.4786 8.03305C5.3127 5.60326 7.54303 3.86252 10.1904 3.86252Z" fill="#E73830"/>
</svg>
