<svg width="169" height="360" viewBox="0 0 169 360" fill="none" xmlns="http://www.w3.org/2000/svg">
<g clip-path="url(#clip0_194_7222)">
<path d="M101.115 229.35L111.05 213.895L111.294 213.926L112.532 214.086L104.202 227.043L103.371 228.336L104.804 227.779L133.206 216.75L136.006 217.11L101.926 230.344C101.793 230.395 101.648 230.403 101.511 230.367C101.373 230.33 101.251 230.251 101.161 230.141C101.071 230.031 101.018 229.895 101.01 229.753C101.001 229.611 101.038 229.469 101.115 229.35ZM133.081 215.725L114.192 213.291C114.25 213.142 114.287 212.985 114.3 212.824C114.323 212.552 114.279 212.28 114.173 212.029L114.128 211.922L133.619 214.434L134.69 215.1L133.081 215.725ZM136.329 216.144L135.155 215.993L135.984 215.671L136.411 215.505L136.329 216.144ZM136.502 214.805L136.472 215.032L136.067 214.78L136.005 214.741L136.502 214.805ZM137.125 213.877L133.963 213.47L107.762 197.156L106.419 196.321L107.037 197.776L112.526 210.708L111.722 210.604L111.226 210.54L111.171 210.967L104.343 194.883C104.287 194.751 104.275 194.604 104.308 194.465C104.34 194.325 104.417 194.2 104.526 194.107C104.635 194.013 104.77 193.957 104.913 193.947C105.056 193.936 105.199 193.971 105.321 194.046L137.182 213.885L137.125 213.877ZM112.09 211.66L112.979 211.774L113.253 212.419C113.295 212.519 113.313 212.63 113.304 212.74C113.295 212.849 113.259 212.954 113.2 213.046L113.13 213.155L111.917 212.998L112.09 211.66ZM137.557 214.437L137.595 214.142L138.775 214.877C138.882 214.943 138.968 215.037 139.023 215.15C139.079 215.262 139.102 215.388 139.091 215.512C139.079 215.637 139.033 215.756 138.957 215.856C138.882 215.956 138.78 216.033 138.663 216.079L137.276 216.617L137.557 214.437Z" fill="#D4D4D4" stroke="#C1C1C1"/>
<path d="M-219.93 78.744C-167.183 46.049 -42.6797 3.47198 33.3643 94.719C128.42 208.778 53.8693 -64.769 34.2633 39.157C14.6566 143.082 78.9013 212.513 104.831 211.708" stroke="#D4D4D4" stroke-width="2" stroke-dasharray="8 8"/>
</g>
<defs>
<clipPath id="clip0_194_7222">
<rect width="169" height="360" fill="white" transform="matrix(1 0 0 -1 0 360)"/>
</clipPath>
</defs>
</svg>
