<?xml version="1.0" encoding="UTF-8" standalone="no"?>
<svg xmlns="http://www.w3.org/2000/svg" version="1.2" baseProfile="tiny" viewBox="0.00 0.00 164.00 160.00">
<path fill="#000000" d="
  M 81.58 0.00
  L 83.59 0.00
  Q 87.03 1.18 87.23 5.76
  Q 87.45 10.73 87.05 16.88
  A 3.60 3.59 -87.6 0 1 83.39 20.25
  L 82.38 20.23
  Q 78.08 20.14 77.88 15.84
  Q 77.52 7.96 77.76 4.49
  Q 77.99 1.10 81.58 0.00
  Z"
/>
<rect fill="#000000" x="-4.71" y="-10.97" transform="translate(48.95,17.09) rotate(-29.9)" width="9.42" height="21.94" rx="4.54"/>
<rect fill="#000000" x="-4.70" y="-10.98" transform="translate(116.04,17.10) rotate(29.8)" width="9.40" height="21.96" rx="4.53"/>
<path fill="#000000" d="
  M 119.64 46.51
  Q 140.52 55.55 156.56 71.69
  C 160.33 75.49 165.03 79.00 160.71 83.91
  C 145.68 100.99 124.85 113.64 102.72 118.88
  C 66.03 127.58 27.77 110.83 3.79 83.45
  C 1.66 81.01 2.33 78.20 4.45 75.85
  Q 25.07 52.97 53.15 43.62
  Q 86.97 32.35 119.64 46.51
  Z
  M 114.46 80.00
  A 31.96 31.96 0.0 0 0 82.50 48.04
  A 31.96 31.96 0.0 0 0 50.54 80.00
  A 31.96 31.96 0.0 0 0 82.50 111.96
  A 31.96 31.96 0.0 0 0 114.46 80.00
  Z
  M 118.04 101.14
  C 117.55 102.03 116.59 103.08 116.22 103.98
  Q 115.85 104.91 116.76 104.50
  Q 136.16 95.58 151.12 80.36
  Q 151.49 79.98 151.12 79.60
  Q 139.52 67.77 124.96 59.82
  Q 120.56 57.42 116.46 55.30
  Q 115.46 54.79 116.08 55.72
  Q 130.82 77.87 118.04 101.14
  Z
  M 46.56 59.52
  C 47.05 58.63 48.26 57.15 48.85 55.86
  Q 49.22 55.06 48.41 55.43
  Q 28.91 64.35 13.87 79.64
  A 0.53 0.53 0.0 0 0 13.87 80.38
  Q 28.96 95.72 48.54 104.60
  Q 49.39 104.99 48.88 104.21
  C 39.67 90.06 38.34 74.54 46.56 59.52
  Z"
/>
<path fill="#000000" d="
  M 98.50 80.00
  A 16.00 16.00 0.0 0 1 82.50 96.00
  A 16.00 16.00 0.0 0 1 66.50 80.00
  A 16.00 16.00 0.0 0 1 82.50 64.00
  A 16.00 16.00 0.0 0 1 98.50 80.00
  Z
  M 89.09 80.00
  A 6.59 6.59 0.0 0 0 82.50 73.41
  A 6.59 6.59 0.0 0 0 75.91 80.00
  A 6.59 6.59 0.0 0 0 82.50 86.59
  A 6.59 6.59 0.0 0 0 89.09 80.00
  Z"
/>
<rect fill="#000000" x="-4.70" y="-10.98" transform="translate(48.96,142.90) rotate(29.8)" width="9.40" height="21.96" rx="4.53"/>
<rect fill="#000000" x="-4.70" y="-10.97" transform="translate(116.05,142.92) rotate(-29.9)" width="9.40" height="21.94" rx="4.53"/>
<path fill="#000000" d="
  M 83.42 160.00
  L 81.41 160.00
  Q 77.81 158.79 77.76 154.49
  Q 77.68 147.41 77.94 143.13
  A 3.60 3.60 0.0 0 1 81.60 139.75
  L 82.62 139.77
  Q 86.93 139.86 87.12 144.17
  Q 87.47 152.10 87.25 155.51
  Q 87.02 158.89 83.42 160.00
  Z"
/>
</svg>
