<svg width="269" height="24" viewBox="0 0 269 24" fill="none" xmlns="http://www.w3.org/2000/svg">
<g clip-path="url(#clip0_194_43)">
<path d="M5.82109 9.45C7.95109 9.47 10.0711 9.35 12.2011 9.28C13.0611 9.25 13.9311 9.21 14.7911 9.16C18.6011 8.97 22.4111 8.78 26.2211 8.59C30.7711 8.36 35.3311 8.12 39.8811 7.87C46.3911 7.51 52.8911 7.14 59.3911 6.78C60.8811 6.7 62.3711 6.64 63.8611 6.57C67.6511 6.39 71.4411 6.21 75.2311 6.04C79.0211 5.86 82.8111 5.68 86.6011 5.51C88.0811 5.44 89.5711 5.35 91.0511 5.3C97.1011 5.11 103.151 4.92 109.191 4.73C112.911 4.61 116.631 4.5 120.351 4.38C121.811 4.33 123.261 4.27 124.721 4.24C130.571 4.16 136.411 4.06 142.261 3.98C148.031 3.89 153.801 3.81 159.571 3.72C161.091 3.7 162.621 3.71 164.141 3.7C167.911 3.69 171.671 3.67 175.441 3.66C181.301 3.64 187.151 3.62 193.011 3.59C194.921 3.58 196.841 3.6 198.761 3.61C202.771 3.62 206.781 3.64 210.791 3.65C211.121 3.65 211.451 3.65 211.781 3.65C202.751 3.77 193.731 3.89 184.701 4.03C180.931 4.09 177.161 4.14 173.391 4.2C171.761 4.22 170.141 4.23 168.511 4.27C163.061 4.41 157.601 4.57 152.151 4.71C145.851 4.88 139.541 5.05 133.241 5.22C132.181 5.25 131.121 5.31 130.061 5.36C126.701 5.52 123.351 5.67 119.991 5.82C113.181 6.13 106.371 6.45 99.5611 6.76C98.5511 6.81 97.5511 6.88 96.5411 6.95C93.2211 7.18 89.8911 7.41 86.5611 7.64C80.6011 8.05 74.6511 8.46 68.6911 8.87C67.0511 8.98 65.4111 9.15 63.7711 9.28C59.9611 9.6 56.1411 9.92 52.3311 10.24C47.4811 10.65 42.6311 11.04 37.7911 11.47C31.0411 12.06 24.3011 12.65 17.5511 13.24C15.9311 13.38 14.3111 13.52 12.7011 13.66C9.80109 13.91 6.91109 14.28 4.01109 14.6C3.70109 14.63 3.44109 14.83 3.44109 15.17C3.44109 15.49 3.70109 15.72 4.01109 15.74C5.07109 15.79 6.13109 15.83 7.18109 15.88C7.05109 16.16 6.97109 16.46 6.97109 16.76C6.97109 17.84 7.91109 18.91 9.04109 18.84C17.3111 18.32 25.5811 17.76 33.8611 17.37C41.0511 17.03 48.2311 16.69 55.4211 16.34C63.3711 15.96 71.3111 15.58 79.2611 15.2C81.7611 15.08 84.2611 14.96 86.7611 14.84C87.4811 14.81 88.2011 14.76 88.9311 14.74C101.731 14.4 114.531 14.07 127.331 13.73C134.171 13.55 141.011 13.37 147.851 13.19C150.321 13.13 152.791 13.07 155.261 13.03C168.351 12.83 181.441 12.62 194.541 12.42C200.151 12.33 205.761 12.24 211.371 12.15C216.161 12.07 220.951 12.04 225.741 11.86C229.691 11.71 233.651 11.56 237.611 11.41C239.581 11.34 241.561 11.29 243.531 11.16C248.021 10.88 252.511 10.59 257.001 10.29C257.001 10.3 256.991 10.3 256.991 10.31C256.741 10.74 256.671 11.27 256.801 11.75C256.931 12.22 257.241 12.62 257.661 12.87C258.051 13.1 258.661 13.23 259.101 13.06C260.081 12.67 261.051 12.27 262.021 11.87C262.001 11.88 261.981 11.89 261.961 11.9C262.031 11.87 262.101 11.84 262.181 11.81C262.261 11.78 262.351 11.74 262.431 11.71C262.401 11.72 262.371 11.74 262.341 11.75C262.861 11.53 263.381 11.31 263.891 11.09C264.431 10.86 264.971 10.64 265.511 10.4C266.101 10.14 266.661 9.83 267.231 9.53C267.871 9.19 268.261 8.44 268.261 7.73C268.261 7.35 268.161 7 267.981 6.68C267.731 6.25 267.241 5.81 266.741 5.72C266.241 5.63 265.741 5.57 265.231 5.5C265.121 5.49 265.011 5.48 264.891 5.48C264.551 5.48 264.191 5.53 263.871 5.55C263.111 5.6 262.351 5.72 261.591 5.77C260.971 5.82 260.351 5.86 259.721 5.9C258.041 6.02 256.371 6.14 254.701 6.26C254.271 6.29 253.831 6.32 253.401 6.35C253.561 6.17 253.671 5.97 253.741 5.73C253.821 5.55 253.861 5.35 253.871 5.15C253.891 5.01 253.911 4.87 253.931 4.72C253.931 4.53 253.901 4.36 253.841 4.19C253.881 4.17 253.931 4.15 253.971 4.13C254.281 3.94 254.541 3.69 254.721 3.38C254.911 3.05 255.011 2.7 255.011 2.32C255.011 1.94 254.911 1.59 254.721 1.26C254.611 1.12 254.501 0.98 254.391 0.83C254.131 0.57 253.821 0.39 253.461 0.29C252.831 0.06 252.161 0 251.471 0C250.911 0 250.351 0.04 249.791 0.05C248.991 0.06 248.181 0.07 247.371 0.07C246.231 0.08 245.091 0.1 243.951 0.1C240.941 0.12 237.931 0.13 234.921 0.15C232.091 0.17 229.261 0.16 226.431 0.16C223.861 0.16 221.281 0.16 218.711 0.17C208.451 0.22 198.201 0.23 187.941 0.34C180.251 0.42 172.561 0.5 164.871 0.57C161.431 0.61 158.001 0.66 154.561 0.73C146.851 0.89 139.151 1.06 131.441 1.22C129.241 1.27 127.041 1.31 124.851 1.36C123.581 1.39 122.301 1.45 121.031 1.5C113.411 1.79 105.801 2.08 98.1811 2.37C95.8611 2.46 93.5311 2.55 91.2111 2.64C89.9111 2.69 88.6011 2.78 87.3011 2.84C79.7411 3.25 72.1711 3.65 64.6111 4.06C60.7111 4.26 56.8111 4.5 52.9011 4.74C46.2211 5.16 39.5311 5.59 32.8511 6.01C27.0611 6.37 21.2711 6.69 15.4811 7.03C14.5611 7.08 13.6411 7.14 12.7311 7.19C11.2411 7.27 9.76109 7.33 8.28109 7.4C6.96109 7.46 5.64109 7.5 4.32109 7.46C4.18109 7.12 3.85109 6.84 3.47109 6.87C2.62109 6.94 1.77109 7.03 0.92109 7.12C0.51109 7.16 0.15109 7.37 0.0310904 7.8C-0.0989096 8.27 0.19109 8.81 0.67109 8.93C1.04109 9.02 1.41109 9.11 1.78109 9.2C2.15109 9.28 2.53109 9.3 2.90109 9.33C3.87109 9.42 4.85109 9.44 5.82109 9.45ZM239.831 6.24C241.071 6.24 242.321 6.24 243.561 6.24C243.671 6.52 243.841 6.77 244.061 6.97C243.581 7 243.101 7.03 242.621 7.05C241.711 7.08 240.811 7.12 239.901 7.15C235.941 7.3 231.991 7.45 228.031 7.6C226.221 7.67 224.411 7.77 222.601 7.8C219.771 7.84 216.941 7.89 214.111 7.93C207.641 8.03 201.181 8.13 194.711 8.24C182.161 8.44 169.601 8.64 157.051 8.84C148.061 8.98 139.071 9.26 130.091 9.5C116.551 9.86 103.011 10.22 89.4711 10.58C86.7611 10.65 84.0411 10.83 81.3311 10.96C73.6411 11.33 65.9611 11.7 58.2711 12.07C50.7211 12.43 43.1811 12.79 35.6311 13.15C34.9311 13.18 34.2311 13.22 33.5311 13.25C35.5611 13.09 37.6011 12.92 39.6311 12.77C46.7311 12.23 53.8311 11.68 60.9411 11.14C63.4211 10.95 65.9011 10.76 68.3811 10.57C69.6611 10.47 70.9411 10.41 72.2211 10.33C79.6111 9.88 86.9911 9.44 94.3811 8.99C95.8211 8.9 97.2711 8.79 98.7111 8.73C100.791 8.65 102.871 8.57 104.951 8.49C112.561 8.19 120.181 7.9 127.791 7.6C129.471 7.54 131.141 7.47 132.821 7.4C133.261 7.38 133.701 7.38 134.141 7.37C135.321 7.35 136.491 7.32 137.671 7.3C145.301 7.14 152.931 6.99 160.561 6.83C164.081 6.76 167.591 6.67 171.111 6.65C182.461 6.56 193.801 6.44 205.151 6.39C216.711 6.33 228.271 6.25 239.831 6.24Z" fill="#FF4C3D"/>
<path d="M20.86 23.16C21.1748 23.16 21.43 22.9048 21.43 22.59C21.43 22.2752 21.1748 22.02 20.86 22.02C20.5452 22.02 20.29 22.2752 20.29 22.59C20.29 22.9048 20.5452 23.16 20.86 23.16Z" fill="#FF4C3D"/>
</g>
<defs>
<clipPath id="clip0_194_43">
<rect width="268.28" height="23.16" fill="white"/>
</clipPath>
</defs>
</svg>
