<svg width="168" height="30" viewBox="0 0 168 30" fill="none" xmlns="http://www.w3.org/2000/svg">
<path d="M8.68074 0.132935H15.8253C28.7672 0.132935 35.5036 16.0738 26.1952 25.4896C23.5415 28.1739 19.8671 29.8671 15.8253 29.8671H13.8657V26.4394H15.8253C25.7461 26.4394 30.9719 14.1741 23.8273 6.90572C21.786 4.84085 18.969 3.56062 15.8253 3.56062H10.3546V7.11221H15.8253C22.6841 7.11221 26.2768 15.5782 21.3369 20.5752C19.908 22.0206 17.9891 22.8878 15.8253 22.8878H6.96604V14.0915H10.3546V19.4601H15.8253C19.7038 19.4601 21.7451 14.6696 18.9281 11.8614C18.1116 11.0355 17.0093 10.5399 15.8253 10.5399H3.45498V29.8671H0.0664062V7.11221C2.35268 7.11221 4.67977 7.11221 6.96604 7.11221V0.132935H8.68074Z" fill="#212830"/>
<path d="M6.98438 29.6715H10.3821V26.2661H6.98438V29.6715Z" fill="#6452EA"/>
<path d="M0.0664062 3.53835H3.46417V0.132935H0.0664062V3.53835Z" fill="#FF7468"/>
<path d="M46.771 24H40.5835V6.54545H46.8221C48.5778 6.54545 50.0891 6.89489 51.3562 7.59375C52.6232 8.28693 53.5977 9.28409 54.2795 10.5852C54.967 11.8864 55.3107 13.4432 55.3107 15.2557C55.3107 17.0739 54.967 18.6364 54.2795 19.9432C53.5977 21.25 52.6175 22.2528 51.3391 22.9517C50.0664 23.6506 48.5437 24 46.771 24ZM44.2738 20.8381H46.6175C47.7085 20.8381 48.6261 20.6449 49.3704 20.2585C50.1204 19.8665 50.6829 19.2614 51.0579 18.4432C51.4386 17.6193 51.6289 16.5568 51.6289 15.2557C51.6289 13.9659 51.4386 12.9119 51.0579 12.0938C50.6829 11.2756 50.1232 10.6733 49.3789 10.2869C48.6346 9.90057 47.717 9.70739 46.6261 9.70739H44.2738V20.8381Z" fill="#FF6464"/>
<path d="M61.0529 24H57.0984L63.1239 6.54545H67.8796L73.8967 24H69.9421L65.57 10.5341H65.4336L61.0529 24ZM60.8058 17.1392H70.1467V20.0199H60.8058V17.1392ZM73.1999 9.58807V6.54545H87.5352V9.58807H82.1914V24H78.5437V9.58807H73.1999ZM90.7717 24H86.8171L92.8427 6.54545H97.5984L103.615 24H99.6609L95.2887 10.5341H95.1523L90.7717 24ZM90.5245 17.1392H99.8654V20.0199H90.5245V17.1392ZM121.255 24V6.54545H124.946V20.9574H132.429V24H121.255ZM138.326 24H134.372L140.397 6.54545H145.153L151.17 24H147.216L142.843 10.5341H142.707L138.326 24ZM138.079 17.1392H147.42V20.0199H138.079V17.1392ZM150.467 6.54545H154.6L158.581 14.0625H158.751L162.731 6.54545H166.865L160.498 17.8295V24H156.833V17.8295L150.467 6.54545Z" fill="#212830"/>
<path d="M105.716 24V6.54545H112.603C113.926 6.54545 115.054 6.7983 115.986 7.30398C116.918 7.80398 117.628 8.5 118.117 9.39204C118.611 10.2784 118.858 11.3011 118.858 12.4602C118.858 13.6193 118.608 14.642 118.108 15.5284C117.608 16.4148 116.884 17.1051 115.935 17.5994C114.992 18.0937 113.85 18.3409 112.509 18.3409H108.12V15.3835H111.912C112.623 15.3835 113.208 15.2614 113.668 15.017C114.134 14.767 114.48 14.4233 114.708 13.9858C114.941 13.5426 115.057 13.0341 115.057 12.4602C115.057 11.8807 114.941 11.375 114.708 10.9432C114.48 10.5057 114.134 10.1676 113.668 9.92898C113.202 9.68466 112.611 9.5625 111.895 9.5625H109.407V24H105.716Z" fill="#8073E5"/>
</svg>
