<svg width="25" height="25" viewBox="0 0 25 25" fill="none" xmlns="http://www.w3.org/2000/svg">
<mask id="mask0_73_836" style="mask-type:alpha" maskUnits="userSpaceOnUse" x="0" y="0" width="25" height="25">
<rect x="0.328247" y="0.452332" width="24" height="24" fill="#D9D9D9"/>
</mask>
<g mask="url(#mask0_73_836)">
<path d="M14.8032 12.4523L7.45324 5.10233C7.20324 4.85233 7.0824 4.5565 7.09074 4.21483C7.09907 3.87316 7.22824 3.57733 7.47824 3.32733C7.72824 3.07733 8.02407 2.95233 8.36574 2.95233C8.7074 2.95233 9.00324 3.07733 9.25324 3.32733L16.9282 11.0273C17.1282 11.2273 17.2782 11.4523 17.3782 11.7023C17.4782 11.9523 17.5282 12.2023 17.5282 12.4523C17.5282 12.7023 17.4782 12.9523 17.3782 13.2023C17.2782 13.4523 17.1282 13.6773 16.9282 13.8773L9.22824 21.5773C8.97824 21.8273 8.68657 21.9482 8.35324 21.9398C8.0199 21.9315 7.72824 21.8023 7.47824 21.5523C7.22824 21.3023 7.10324 21.0065 7.10324 20.6648C7.10324 20.3232 7.22824 20.0273 7.47824 19.7773L14.8032 12.4523Z" fill="#1C1B1F"/>
</g>
</svg>
