<?xml version="1.0" encoding="UTF-8" standalone="no"?>
<svg xmlns="http://www.w3.org/2000/svg" version="1.2" baseProfile="tiny" viewBox="0.00 0.00 100.00 81.00">
<path fill="#000000" d="
  M 28.29 0.00
  L 72.00 0.00
  C 91.90 1.05 98.78 7.28 99.01 27.69
  Q 99.21 44.87 98.98 55.25
  C 98.58 73.11 90.34 79.45 73.25 79.80
  Q 46.47 80.36 27.25 79.95
  C 9.83 79.58 1.90 73.02 1.24 55.50
  Q 0.80 43.73 1.17 28.25
  C 1.63 8.41 7.32 0.54 28.29 0.00
  Z
  M 76.73 6.88
  L 23.49 6.88
  A 15.49 15.49 0.0 0 0 8.00 22.37
  L 8.00 57.26
  A 16.30 15.96 0.0 0 0 24.30 73.22
  L 75.92 73.22
  A 16.30 15.96 0.0 0 0 92.22 57.26
  L 92.22 22.37
  A 15.49 15.49 0.0 0 0 76.73 6.88
  Z"
/>
<path fill="#000000" d="
  M 48.97 26.32
  A 12.57 12.57 0.0 0 1 36.40 38.89
  A 12.57 12.57 0.0 0 1 23.83 26.32
  A 12.57 12.57 0.0 0 1 36.40 13.75
  A 12.57 12.57 0.0 0 1 48.97 26.32
  Z
  M 42.11 26.33
  A 5.70 5.70 0.0 0 0 36.41 20.63
  A 5.70 5.70 0.0 0 0 30.71 26.33
  A 5.70 5.70 0.0 0 0 36.41 32.03
  A 5.70 5.70 0.0 0 0 42.11 26.33
  Z"
/>
<rect fill="#000000" x="-14.65" y="-3.44" transform="translate(70.65,26.28) rotate(-0.1)" width="29.30" height="6.88" rx="3.17"/>
<rect fill="#000000" x="-12.39" y="-3.44" transform="translate(72.92,39.98) rotate(-0.1)" width="24.78" height="6.88" rx="3.20"/>
<path fill="#000000" d="
  M 14.74 55.90
  C 13.03 36.58 56.89 36.81 58.09 53.44
  C 58.64 61.22 54.11 64.64 46.95 65.67
  Q 35.02 67.40 23.74 65.23
  Q 15.42 63.63 14.74 55.90
  Z
  M 23.93 58.09
  C 31.05 59.98 42.83 60.69 50.12 57.62
  A 1.32 1.32 0.0 0 0 50.84 56.90
  C 52.83 52.07 47.95 50.01 44.24 49.10
  Q 34.98 46.81 26.26 49.83
  C 22.53 51.12 18.39 56.62 23.93 58.09
  Z"
/>
<rect fill="#000000" x="-10.13" y="-3.43" transform="translate(75.15,53.70) rotate(-0.1)" width="20.26" height="6.86" rx="3.07"/>
</svg>
