<svg width="25" height="25" viewBox="0 0 25 25" fill="none" xmlns="http://www.w3.org/2000/svg">
<mask id="mask0_73_824" style="mask-type:alpha" maskUnits="userSpaceOnUse" x="0" y="0" width="25" height="25">
<rect x="0.328247" y="0.452332" width="24" height="24" fill="#D9D9D9"/>
</mask>
<g mask="url(#mask0_73_824)">
<path d="M9.8782 12.4523L17.2282 19.8023C17.4782 20.0523 17.599 20.344 17.5907 20.6773C17.5824 21.0107 17.4532 21.3023 17.2032 21.5523C16.9532 21.8023 16.6615 21.9273 16.3282 21.9273C15.9949 21.9273 15.7032 21.8023 15.4532 21.5523L7.7532 13.8773C7.5532 13.6773 7.4032 13.4523 7.3032 13.2023C7.2032 12.9523 7.1532 12.7023 7.1532 12.4523C7.1532 12.2023 7.2032 11.9523 7.3032 11.7023C7.4032 11.4523 7.5532 11.2273 7.7532 11.0273L15.4532 3.32732C15.7032 3.07732 15.999 2.95649 16.3407 2.96482C16.6824 2.97315 16.9782 3.10232 17.2282 3.35232C17.4782 3.60232 17.6032 3.89399 17.6032 4.22732C17.6032 4.56065 17.4782 4.85232 17.2282 5.10232L9.8782 12.4523Z" fill="#1C1B1F"/>
</g>
</svg>
