<?xml version="1.0" encoding="UTF-8" standalone="no"?>
<svg xmlns="http://www.w3.org/2000/svg" version="1.2" baseProfile="tiny" viewBox="0.00 0.00 161.00 160.00">
<path fill="#000000" d="
  M 15.59 0.00
  L 65.07 0.00
  C 71.46 1.39 76.50 4.71 78.86 10.73
  Q 80.16 14.04 80.13 22.91
  Q 80.10 31.58 80.12 40.25
  A 1.64 1.63 28.4 0 0 80.39 41.15
  Q 84.97 48.10 89.37 55.09
  C 91.28 58.11 89.38 61.99 85.75 62.01
  Q 53.98 62.12 22.21 62.12
  Q 14.53 62.12 10.99 60.68
  C 2.74 57.33 0.50 50.54 0.50 41.77
  Q 0.50 31.20 0.50 20.63
  Q 0.51 13.90 1.89 10.54
  Q 5.40 2.04 15.59 0.00
  Z
  M 71.63 45.08
  A 5.17 5.11 -62.3 0 1 70.75 42.20
  Q 70.75 30.43 70.75 18.66
  C 70.75 11.24 67.20 9.37 60.07 9.37
  Q 40.07 9.39 20.07 9.36
  C 11.63 9.35 9.85 12.68 9.86 20.90
  Q 9.89 32.03 9.86 43.16
  C 9.84 50.21 12.99 52.74 20.08 52.74
  Q 48.17 52.76 76.17 52.74
  A 0.31 0.31 0.0 0 0 76.43 52.25
  L 71.63 45.08
  Z"
/>
<path fill="#000000" d="
  M 71.43 160.00
  L 4.20 160.00
  Q 0.85 158.74 0.66 156.60
  Q -1.69 130.36 20.26 117.24
  Q 20.72 116.96 20.31 116.62
  C -3.09 97.19 18.50 61.42 47.08 72.46
  C 48.99 73.20 51.10 75.38 53.24 75.38
  Q 73.13 75.38 92.93 75.37
  A 0.41 0.41 0.0 0 0 93.34 74.98
  Q 93.89 58.07 108.08 49.27
  Q 108.55 48.98 108.15 48.61
  C 96.12 37.43 99.67 17.58 115.02 11.56
  C 123.30 8.32 132.97 10.39 139.09 16.75
  C 147.99 26.02 147.34 39.44 138.35 48.72
  Q 138.00 49.08 138.43 49.35
  Q 152.41 58.20 153.06 75.00
  Q 153.07 75.46 153.53 75.43
  C 156.92 75.23 160.50 75.72 160.50 80.00
  Q 160.51 112.56 160.49 145.03
  Q 160.49 149.17 156.38 149.74
  L 155.41 149.88
  A 3.54 3.53 -8.8 0 1 151.44 146.98
  Q 150.87 143.72 151.18 140.37
  A 0.45 0.45 0.0 0 0 150.73 139.87
  L 74.25 139.87
  Q 73.74 139.87 73.86 140.37
  Q 76.01 149.76 74.96 156.76
  Q 74.63 158.99 71.43 160.00
  Z
  M 136.04 32.30
  A 12.87 12.87 0.0 0 0 123.17 19.43
  A 12.87 12.87 0.0 0 0 110.30 32.30
  A 12.87 12.87 0.0 0 0 123.17 45.17
  A 12.87 12.87 0.0 0 0 136.04 32.30
  Z
  M 103.00 75.38
  L 143.36 75.38
  A 0.25 0.25 0.0 0 0 143.61 75.13
  L 143.61 74.97
  A 20.35 20.35 0.0 0 0 123.26 54.62
  L 123.10 54.62
  A 20.35 20.35 0.0 0 0 102.75 74.97
  L 102.75 75.13
  A 0.25 0.25 0.0 0 0 103.00 75.38
  Z
  M 53.24 96.33
  A 16.66 16.66 0.0 0 0 36.58 79.67
  A 16.66 16.66 0.0 0 0 19.92 96.33
  A 16.66 16.66 0.0 0 0 36.58 112.99
  A 16.66 16.66 0.0 0 0 53.24 96.33
  Z
  M 60.10 85.00
  C 65.06 96.63 62.56 107.46 53.56 116.00
  A 0.28 0.28 0.0 0 0 53.63 116.46
  Q 63.29 121.10 69.13 130.04
  Q 69.43 130.50 69.98 130.50
  L 150.57 130.50
  Q 151.13 130.50 151.13 129.93
  L 151.13 85.31
  Q 151.13 84.75 150.56 84.75
  L 60.26 84.75
  Q 59.99 84.75 60.10 85.00
  Z
  M 10.13 150.68
  L 65.45 150.58
  A 0.22 0.22 0.0 0 0 65.67 150.36
  L 65.67 150.03
  A 27.84 27.73 -0.1 0 0 37.79 122.35
  L 37.71 122.35
  A 27.84 27.73 -0.1 0 0 9.91 150.13
  L 9.91 150.46
  A 0.22 0.22 0.0 0 0 10.13 150.68
  Z"
/>
<rect fill="#000000" x="-19.69" y="-4.69" transform="translate(40.33,22.30) rotate(0.1)" width="39.38" height="9.38" rx="4.56"/>
<rect fill="#000000" x="-12.17" y="-4.68" transform="translate(32.79,39.81) rotate(0.2)" width="24.34" height="9.36" rx="4.49"/>
</svg>
