<svg width="30" height="30" viewBox="0 0 30 30" fill="none" xmlns="http://www.w3.org/2000/svg">
<path d="M19.3748 17.5H18.3873L18.0373 17.1625C18.8185 16.255 19.3895 15.186 19.7093 14.032C20.0291 12.8781 20.0899 11.6677 19.8873 10.4875C19.2998 7.01253 16.3998 4.23753 12.8998 3.81253C11.6694 3.65686 10.4196 3.78474 9.24613 4.18639C8.07267 4.58804 7.00665 5.2528 6.12964 6.12982C5.25262 7.00683 4.58785 8.07286 4.18621 9.24631C3.78456 10.4198 3.65668 11.6695 3.81235 12.9C4.23735 16.4 7.01235 19.3 10.4873 19.8875C11.6675 20.0901 12.8779 20.0293 14.0319 19.7095C15.1858 19.3896 16.2548 18.8187 17.1623 18.0375L17.4998 18.3875V19.375L22.8123 24.6875C23.3248 25.2 24.1623 25.2 24.6748 24.6875C25.1873 24.175 25.1873 23.3375 24.6748 22.825L19.3748 17.5ZM11.8748 17.5C8.76235 17.5 6.24985 14.9875 6.24985 11.875C6.24985 8.76253 8.76235 6.25003 11.8748 6.25003C14.9873 6.25003 17.4998 8.76253 17.4998 11.875C17.4998 14.9875 14.9873 17.5 11.8748 17.5Z" fill="black"/>
</svg>
