<svg width="76" height="76" viewBox="0 0 76 76" fill="none" xmlns="http://www.w3.org/2000/svg">
<path d="M38 0.5L70.476 19.25V56.75L38 75.5L5.52405 56.75V19.25L38 0.5Z" fill="white"/>
<path d="M47.3441 29.9089C47.1548 30.1311 47.0509 30.4139 47.0509 30.7063C47.0509 30.9988 47.1548 31.2816 47.3441 31.5038C49.8097 34.957 50.8897 39.2164 50.3689 43.4336C49.8481 47.6508 47.7647 51.5161 44.5338 54.2595C41.3029 57.0028 37.1616 58.4228 32.9351 58.2366C28.7086 58.0504 24.707 56.2716 21.7277 53.2546C18.7484 50.2376 17.0099 46.2039 16.8588 41.9571C16.7076 37.7103 18.1548 33.5621 20.912 30.3391C23.6692 27.1161 27.534 25.0547 31.7365 24.5657C35.939 24.0768 40.1706 25.196 43.5883 27.7006C43.8096 27.8907 44.0911 27.9951 44.3822 27.9951C44.6733 27.9951 44.9549 27.8907 45.1761 27.7006C45.3068 27.5827 45.4113 27.4384 45.4829 27.2772C45.5544 27.1161 45.5914 26.9416 45.5914 26.7651C45.5914 26.5886 45.5544 26.4142 45.4829 26.253C45.4113 26.0919 45.3068 25.9476 45.1761 25.8297C42.2868 23.6223 38.8395 22.2726 35.2252 21.9336C31.6109 21.5946 27.9744 22.28 24.7282 23.9119C21.4821 25.5439 18.7563 28.057 16.8601 31.1663C14.9639 34.2755 13.9733 37.8564 14.0005 41.5025C13.9972 45.3631 15.1343 49.1378 17.2679 52.3489C19.4016 55.5599 22.4358 58.0628 25.9864 59.5406C29.537 61.0184 33.4444 61.4047 37.2137 60.6506C40.9831 59.8965 44.4449 58.036 47.1609 55.3044C50.4371 52.029 52.4406 47.6856 52.8101 43.0573C53.1797 38.429 51.8909 33.8203 49.1761 30.0623C49.0698 29.9256 48.9366 29.8125 48.7847 29.73C48.6328 29.6476 48.4655 29.5976 48.2935 29.5832C48.1214 29.5688 47.9482 29.5903 47.7849 29.6463C47.6215 29.7024 47.4714 29.7918 47.3441 29.9089Z" fill="#FF5849"/>
<path d="M44.0772 33.2213C43.8711 33.4139 43.7397 33.6736 43.7061 33.9543C43.6726 34.2351 43.7392 34.5187 43.894 34.7548C45.2038 36.7907 45.8838 39.1707 45.8482 41.5944C45.8077 44.8889 44.466 48.0322 42.1182 50.333C39.7704 52.6337 36.6089 53.9034 33.3291 53.8628C30.0493 53.8221 26.92 52.4744 24.6294 50.1161C22.3389 47.7578 21.0749 44.5821 21.1154 41.2877C21.2002 38.0608 22.5143 34.9896 24.7867 32.7071C27.059 30.4245 30.1166 29.1046 33.3291 29.0193C35.7452 28.9927 38.1148 29.6865 40.1383 31.0129C40.3746 31.1745 40.66 31.2476 40.9445 31.2196C41.2291 31.1916 41.4949 31.0642 41.6955 30.8596C41.8362 30.7294 41.9444 30.5679 42.0116 30.388C42.0787 30.2081 42.1029 30.0149 42.0821 29.8239C42.0613 29.6329 41.9961 29.4495 41.8919 29.2885C41.7876 29.1274 41.6471 28.9932 41.4818 28.8966C39.0656 27.2868 36.2284 26.4329 33.3291 26.443C30.0095 26.4363 26.7824 27.5411 24.1578 29.5826C21.5331 31.6241 19.6606 34.4859 18.8361 37.7158C18.0116 40.9457 18.2821 44.3595 19.6049 47.4177C20.9278 50.476 23.2275 53.0042 26.1406 54.6029C29.0538 56.2016 32.4142 56.7796 35.6909 56.2455C38.9676 55.7115 41.9737 54.0958 44.2342 51.6539C46.4946 49.212 47.8805 46.0831 48.1728 42.7616C48.4651 39.4402 47.6471 36.1156 45.8482 33.3133C45.7404 33.1865 45.6081 33.0831 45.4592 33.0094C45.3104 32.9357 45.1481 32.8933 44.9824 32.8847C44.8167 32.8761 44.6509 32.9014 44.4953 32.9593C44.3396 33.0172 44.1974 33.1063 44.0772 33.2213Z" fill="#FF5849"/>
<path d="M39.1306 38.0979C38.971 38.2726 38.8613 38.4873 38.8129 38.7194C38.7645 38.9515 38.7794 39.1924 38.8558 39.4168C39.1378 40.17 39.2524 40.976 39.1917 41.7784C39.1368 43.2515 38.5194 44.6468 37.4676 45.6748C36.4158 46.7027 35.0103 47.2845 33.5429 47.2992C32.1005 47.2566 30.7284 46.6641 29.7053 45.6421C28.6821 44.62 28.0846 43.2452 28.034 41.7967C27.9835 40.3482 28.4838 38.9346 29.4332 37.8432C30.3826 36.7518 31.7101 36.0642 33.1459 35.9203C33.9469 35.87 34.7492 35.9956 35.4971 36.2884C35.7188 36.376 35.9613 36.3966 36.1946 36.3476C36.428 36.2985 36.6419 36.182 36.81 36.0123C36.9496 35.8674 37.0515 35.6902 37.1067 35.4963C37.1619 35.3024 37.1686 35.0979 37.1263 34.9008C37.0841 34.7037 36.9941 34.5201 36.8644 34.3662C36.7346 34.2124 36.5692 34.093 36.3826 34.0187C35.3251 33.5982 34.1902 33.41 33.0543 33.4666C31.4613 33.5388 29.924 34.0769 28.6313 35.0148C27.3386 35.9527 26.3469 37.2495 25.7781 38.7459C25.2093 40.2423 25.0881 41.873 25.4294 43.4377C25.7708 45.0023 26.5598 46.4327 27.6996 47.553C28.8393 48.6732 30.28 49.4347 31.8447 49.7436C33.4094 50.0525 35.0299 49.8955 36.5069 49.2918C37.984 48.6882 39.2533 47.6642 40.1588 46.3457C41.0643 45.0273 41.5666 43.4718 41.6039 41.8704C41.6055 40.8259 41.4299 39.7887 41.0848 38.8033C41.0416 38.599 40.9471 38.4092 40.8103 38.2518C40.6735 38.0944 40.499 37.9748 40.3033 37.9041C40.1076 37.8335 39.8971 37.8142 39.6919 37.8481C39.4867 37.882 39.2935 37.968 39.1306 38.0979Z" fill="#FF5849"/>
<path d="M62.0314 18.1312C62.0353 18.3123 61.9697 18.488 61.8481 18.6219L54.8252 25.6455C54.6224 25.8435 54.3746 25.9889 54.1033 26.0691C53.8319 26.1492 53.5452 26.1618 53.268 26.1056L51.039 25.6762L36.2604 40.5209C36.3605 40.8384 36.412 41.1694 36.413 41.5024C36.413 42.109 36.2339 42.702 35.8984 43.2064C35.5629 43.7108 35.086 44.1039 34.5281 44.336C33.9701 44.5681 33.3562 44.6289 32.7639 44.5106C32.1716 44.3922 31.6275 44.1001 31.2005 43.6712C30.7735 43.2422 30.4826 42.6957 30.3648 42.1007C30.247 41.5058 30.3075 40.8891 30.5386 40.3287C30.7697 39.7682 31.1611 39.2892 31.6632 38.9522C32.1653 38.6152 32.7557 38.4353 33.3596 38.4353C33.8019 38.4329 34.2395 38.5271 34.642 38.7113L49.3291 23.9586L48.871 21.689C48.8188 21.4127 48.8361 21.1277 48.9214 20.8599C49.0067 20.5921 49.1574 20.3499 49.3596 20.1554L56.352 13.1011C56.4517 13.0352 56.5685 13 56.6878 13C56.8072 13 56.924 13.0352 57.0237 13.1011C57.1554 13.1406 57.271 13.2215 57.3535 13.3319C57.436 13.4423 57.4809 13.5765 57.4817 13.7145L56.81 17.5791C56.8006 17.6471 56.8066 17.7164 56.8274 17.7818C56.8482 17.8472 56.8833 17.9071 56.9302 17.9571C56.977 18.0071 57.0344 18.0459 57.0982 18.0707C57.1619 18.0955 57.2304 18.1057 57.2985 18.1005L61.1764 17.4257C61.3296 17.3953 61.4887 17.4222 61.6236 17.5013C61.7585 17.5803 61.8601 17.7061 61.9092 17.8551C61.9722 17.9354 62.0142 18.0304 62.0314 18.1312Z" fill="#FF5849"/>
</svg>
