<svg width="76" height="76" viewBox="0 0 76 76" fill="none" xmlns="http://www.w3.org/2000/svg">
<path d="M38 0.5L70.476 19.25V56.75L38 75.5L5.52405 56.75V19.25L38 0.5Z" fill="white"/>
<g clip-path="url(#clip0_1_14)">
<path d="M58 40.865V35.1625H51.9945C51.6288 33.3626 50.9178 31.6506 49.9008 30.1212L54.1708 25.8788L50.1212 21.8567L45.8788 26.0992C44.3594 25.0823 42.6564 24.3712 40.865 24.0055V18H35.135V24.0055C33.3413 24.3636 31.6369 25.0753 30.1212 26.0992L25.8788 21.8567L21.8292 25.8788L26.0716 30.1212C25.0745 31.658 24.3737 33.3679 24.0055 35.1625H17.9725V40.865H23.978C24.336 42.6587 25.0478 44.3631 26.0716 45.8788L21.8292 50.1488L25.8512 54.1708L30.1212 49.9284C31.6501 50.9276 33.3496 51.6372 35.135 52.022V58H40.8375V52.022C42.6336 51.6441 44.3434 50.9341 45.8788 49.9284L50.1212 54.1708L54.1708 50.1488L49.9008 45.8788C50.9247 44.3631 51.6364 42.6587 51.9945 40.865H58ZM38 46.5675C36.3055 46.5675 34.6491 46.065 33.2402 45.1236C31.8312 44.1822 30.7331 42.8442 30.0847 41.2787C29.4362 39.7131 29.2666 37.9905 29.5971 36.3286C29.9277 34.6667 30.7437 33.1401 31.9419 31.9419C33.1401 30.7437 34.6666 29.9277 36.3286 29.5971C37.9905 29.2666 39.7131 29.4362 41.2786 30.0847C42.8441 30.7331 44.1822 31.8313 45.1236 33.2402C46.065 34.6491 46.5675 36.3055 46.5675 38C46.5602 40.27 45.6553 42.445 44.0501 44.0501C42.445 45.6553 40.27 46.5602 38 46.5675Z" fill="#4C9DE8"/>
</g>
<defs>
<clipPath id="clip0_1_14">
<rect width="40" height="40" fill="white" transform="translate(18 18)"/>
</clipPath>
</defs>
</svg>
