<svg width="76" height="76" viewBox="0 0 76 76" fill="none" xmlns="http://www.w3.org/2000/svg">
<path d="M39 0.5L71.476 19.25V56.75L39 75.5L6.52405 56.75V19.25L39 0.5Z" fill="white"/>
<mask id="path-2-outside-1_1_2" maskUnits="userSpaceOnUse" x="22" y="14" width="34" height="48" fill="black">
<rect fill="white" x="22" y="14" width="34" height="48"/>
<path fill-rule="evenodd" clip-rule="evenodd" d="M54.948 43.4133V21.3904H51.5686C48.8391 21.3904 48.1632 21.3903 47.9813 21.1791C47.799 20.8028 47.7267 20.3812 47.7733 19.9644V18.961H42.9122C42.9122 17.9105 42.5014 16.9029 41.7702 16.1601C41.0389 15.4173 40.0471 15 39.0129 15C37.9788 15 36.987 15.4173 36.2557 16.1601C35.5245 16.9029 35.1137 17.9105 35.1137 18.961H30.1745V19.9644C30.2211 20.3812 30.149 20.8028 29.9667 21.1791C29.7847 21.3375 29.1088 21.3904 26.3793 21.3904H23V61H55V47.7968H54.1161V59.9701H50.2168V58.8611C50.1357 58.0799 50.1357 57.2921 50.2168 56.5109C50.2838 56.4561 50.3449 56.3941 50.3988 56.326C50.7523 55.8845 50.9854 55.3563 51.0747 54.7945C51.2634 53.2975 51.3243 51.7867 51.2567 50.279C51.2567 46.899 51.1267 46.7933 50.5808 46.5557C50.0349 46.318 50.1389 46.318 50.1389 46.2388C50.1389 46.1596 49.9829 46.2388 49.775 46.2388C49.567 46.2388 49.385 46.2388 49.385 46.2388C49.385 46.2388 49.3849 46.3972 49.177 46.3972C49.1496 46.4009 49.1219 46.399 49.0952 46.3917C49.0686 46.3844 49.0437 46.3718 49.0219 46.3546C49.0002 46.3374 48.982 46.316 48.9685 46.2916C48.9549 46.2671 48.9463 46.2402 48.9431 46.2124C48.894 46.0143 48.7956 45.8324 48.6572 45.6843C48.3972 45.3938 48.1632 45.341 47.4613 45.341C46.7595 45.341 46.5255 45.341 46.4215 45.1033C46.3175 44.8657 46.0056 44.8393 45.5377 44.7865H44.7579V43.7566C44.7579 42.4627 44.5499 41.9874 43.926 41.8025C43.4741 41.6851 43.0002 41.6851 42.5482 41.8025C42.4501 41.8328 42.3609 41.8872 42.2883 41.9609C42.1718 42.0416 42.0742 42.1472 42.0023 42.2704C41.9304 42.3936 41.886 42.5314 41.8723 42.6739C41.8126 43.5531 41.8126 44.4354 41.8723 45.3146V48.2193H41.3005C40.9507 48.2491 40.621 48.398 40.3647 48.6418C40.0268 48.9851 40.0008 49.0907 40.0008 51.2825V52.0746C40.0008 52.2859 40.0008 52.4971 40.0008 52.7084C40.0008 52.9196 40.0008 53.0517 40.0008 53.2101C40.0008 53.3685 40.0008 53.2101 40.0008 53.3685C39.9742 53.4814 39.9742 53.599 40.0008 53.7118C40.3577 54.6594 40.9274 55.5094 41.6645 56.194C41.7917 56.306 41.8767 56.4593 41.9052 56.6278C41.9336 56.7963 41.9037 56.9696 41.8204 57.1182C41.6385 57.2767 41.5864 57.6728 41.5864 58.4914V59.6005H23.6499V22.1561H30.0706V23.9782H47.7212V22.1561H54.0122V43.2813L54.948 43.4133ZM49.3071 59.0987V59.9701H42.7562V57.9897H46.0316C47.1598 57.9462 48.2895 57.9904 49.411 58.1217C49.4283 58.4509 49.3933 58.7809 49.3071 59.0987ZM41.9244 54.6889C41.7164 54.4776 41.5344 54.2399 41.3784 54.0551C41.0938 53.7164 40.9371 53.2858 40.9365 52.8404C40.9365 52.4179 40.9365 51.837 40.9365 51.2296C40.9365 49.3812 40.9366 49.3283 41.3265 49.2755C41.7165 49.2227 42.0803 49.5924 42.0803 50.543C42.0803 51.4937 42.0803 51.3881 42.5482 51.3881H42.9122V47.0574C42.9122 42.6211 42.9121 42.2778 43.484 42.2778C43.6482 42.2979 43.7979 42.3834 43.9 42.5155C44.1385 43.6963 44.2086 44.9057 44.108 46.1068V49.4076H45.1477V47.5327V45.6843H45.5898C45.6866 45.667 45.786 45.6723 45.8806 45.6997C45.9752 45.7272 46.0623 45.776 46.1356 45.8427C46.2541 46.4688 46.2977 47.1072 46.2655 47.744C46.2655 49.3283 46.2656 49.4604 46.5516 49.4604C47.2794 49.4604 47.3314 49.4604 47.3314 47.876C47.3314 46.2916 47.3314 45.9747 47.7733 45.9747C48.2152 45.9747 48.2151 46.2652 48.2151 48.2457C48.2151 50.2262 48.2153 50.2262 48.9691 50.0941C49.723 49.9621 49.3329 49.9621 49.3329 48.6418C49.3329 47.3215 49.463 46.9782 50.0869 47.0574C50.7108 47.1366 50.3728 47.2687 50.5027 49.698C50.5993 51.2128 50.5559 52.7335 50.3728 54.24C50.1361 55.0992 49.7582 55.9116 49.255 56.643C49.255 56.8014 48.7091 56.8278 46.2655 56.8278C45.2008 56.8962 44.1329 56.8962 43.0682 56.8278C42.9159 56.6584 42.8165 56.4471 42.7823 56.2204C42.6302 55.6437 42.3347 55.1163 41.9244 54.6889ZM46.8635 23.1332H31.0324V19.7796H35.3477C35.5407 19.7796 35.7257 19.7016 35.8622 19.563C35.9987 19.4243 36.0755 19.2363 36.0755 19.0402V18.8817C36.1854 18.1759 36.5349 17.5314 37.0633 17.0597C37.5812 16.599 38.2464 16.3455 38.9349 16.3467C39.6498 16.3548 40.3374 16.6274 40.8686 17.1135C41.3998 17.5997 41.7382 18.2659 41.8204 18.9874C41.8203 19.186 41.8961 19.3769 42.0319 19.5197C42.1677 19.6626 42.3528 19.7463 42.5482 19.7532H46.8635V23.1332Z"/>
</mask>
<path fill-rule="evenodd" clip-rule="evenodd" d="M54.948 43.4133V21.3904H51.5686C48.8391 21.3904 48.1632 21.3903 47.9813 21.1791C47.799 20.8028 47.7267 20.3812 47.7733 19.9644V18.961H42.9122C42.9122 17.9105 42.5014 16.9029 41.7702 16.1601C41.0389 15.4173 40.0471 15 39.0129 15C37.9788 15 36.987 15.4173 36.2557 16.1601C35.5245 16.9029 35.1137 17.9105 35.1137 18.961H30.1745V19.9644C30.2211 20.3812 30.149 20.8028 29.9667 21.1791C29.7847 21.3375 29.1088 21.3904 26.3793 21.3904H23V61H55V47.7968H54.1161V59.9701H50.2168V58.8611C50.1357 58.0799 50.1357 57.2921 50.2168 56.5109C50.2838 56.4561 50.3449 56.3941 50.3988 56.326C50.7523 55.8845 50.9854 55.3563 51.0747 54.7945C51.2634 53.2975 51.3243 51.7867 51.2567 50.279C51.2567 46.899 51.1267 46.7933 50.5808 46.5557C50.0349 46.318 50.1389 46.318 50.1389 46.2388C50.1389 46.1596 49.9829 46.2388 49.775 46.2388C49.567 46.2388 49.385 46.2388 49.385 46.2388C49.385 46.2388 49.3849 46.3972 49.177 46.3972C49.1496 46.4009 49.1219 46.399 49.0952 46.3917C49.0686 46.3844 49.0437 46.3718 49.0219 46.3546C49.0002 46.3374 48.982 46.316 48.9685 46.2916C48.9549 46.2671 48.9463 46.2402 48.9431 46.2124C48.894 46.0143 48.7956 45.8324 48.6572 45.6843C48.3972 45.3938 48.1632 45.341 47.4613 45.341C46.7595 45.341 46.5255 45.341 46.4215 45.1033C46.3175 44.8657 46.0056 44.8393 45.5377 44.7865H44.7579V43.7566C44.7579 42.4627 44.5499 41.9874 43.926 41.8025C43.4741 41.6851 43.0002 41.6851 42.5482 41.8025C42.4501 41.8328 42.3609 41.8872 42.2883 41.9609C42.1718 42.0416 42.0742 42.1472 42.0023 42.2704C41.9304 42.3936 41.886 42.5314 41.8723 42.6739C41.8126 43.5531 41.8126 44.4354 41.8723 45.3146V48.2193H41.3005C40.9507 48.2491 40.621 48.398 40.3647 48.6418C40.0268 48.9851 40.0008 49.0907 40.0008 51.2825V52.0746C40.0008 52.2859 40.0008 52.4971 40.0008 52.7084C40.0008 52.9196 40.0008 53.0517 40.0008 53.2101C40.0008 53.3685 40.0008 53.2101 40.0008 53.3685C39.9742 53.4814 39.9742 53.599 40.0008 53.7118C40.3577 54.6594 40.9274 55.5094 41.6645 56.194C41.7917 56.306 41.8767 56.4593 41.9052 56.6278C41.9336 56.7963 41.9037 56.9696 41.8204 57.1182C41.6385 57.2767 41.5864 57.6728 41.5864 58.4914V59.6005H23.6499V22.1561H30.0706V23.9782H47.7212V22.1561H54.0122V43.2813L54.948 43.4133ZM49.3071 59.0987V59.9701H42.7562V57.9897H46.0316C47.1598 57.9462 48.2895 57.9904 49.411 58.1217C49.4283 58.4509 49.3933 58.7809 49.3071 59.0987ZM41.9244 54.6889C41.7164 54.4776 41.5344 54.2399 41.3784 54.0551C41.0938 53.7164 40.9371 53.2858 40.9365 52.8404C40.9365 52.4179 40.9365 51.837 40.9365 51.2296C40.9365 49.3812 40.9366 49.3283 41.3265 49.2755C41.7165 49.2227 42.0803 49.5924 42.0803 50.543C42.0803 51.4937 42.0803 51.3881 42.5482 51.3881H42.9122V47.0574C42.9122 42.6211 42.9121 42.2778 43.484 42.2778C43.6482 42.2979 43.7979 42.3834 43.9 42.5155C44.1385 43.6963 44.2086 44.9057 44.108 46.1068V49.4076H45.1477V47.5327V45.6843H45.5898C45.6866 45.667 45.786 45.6723 45.8806 45.6997C45.9752 45.7272 46.0623 45.776 46.1356 45.8427C46.2541 46.4688 46.2977 47.1072 46.2655 47.744C46.2655 49.3283 46.2656 49.4604 46.5516 49.4604C47.2794 49.4604 47.3314 49.4604 47.3314 47.876C47.3314 46.2916 47.3314 45.9747 47.7733 45.9747C48.2152 45.9747 48.2151 46.2652 48.2151 48.2457C48.2151 50.2262 48.2153 50.2262 48.9691 50.0941C49.723 49.9621 49.3329 49.9621 49.3329 48.6418C49.3329 47.3215 49.463 46.9782 50.0869 47.0574C50.7108 47.1366 50.3728 47.2687 50.5027 49.698C50.5993 51.2128 50.5559 52.7335 50.3728 54.24C50.1361 55.0992 49.7582 55.9116 49.255 56.643C49.255 56.8014 48.7091 56.8278 46.2655 56.8278C45.2008 56.8962 44.1329 56.8962 43.0682 56.8278C42.9159 56.6584 42.8165 56.4471 42.7823 56.2204C42.6302 55.6437 42.3347 55.1163 41.9244 54.6889ZM46.8635 23.1332H31.0324V19.7796H35.3477C35.5407 19.7796 35.7257 19.7016 35.8622 19.563C35.9987 19.4243 36.0755 19.2363 36.0755 19.0402V18.8817C36.1854 18.1759 36.5349 17.5314 37.0633 17.0597C37.5812 16.599 38.2464 16.3455 38.9349 16.3467C39.6498 16.3548 40.3374 16.6274 40.8686 17.1135C41.3998 17.5997 41.7382 18.2659 41.8204 18.9874C41.8203 19.186 41.8961 19.3769 42.0319 19.5197C42.1677 19.6626 42.3528 19.7463 42.5482 19.7532H46.8635V23.1332Z" fill="#4C9DE8"/>
<path fill-rule="evenodd" clip-rule="evenodd" d="M54.948 43.4133V21.3904H51.5686C48.8391 21.3904 48.1632 21.3903 47.9813 21.1791C47.799 20.8028 47.7267 20.3812 47.7733 19.9644V18.961H42.9122C42.9122 17.9105 42.5014 16.9029 41.7702 16.1601C41.0389 15.4173 40.0471 15 39.0129 15C37.9788 15 36.987 15.4173 36.2557 16.1601C35.5245 16.9029 35.1137 17.9105 35.1137 18.961H30.1745V19.9644C30.2211 20.3812 30.149 20.8028 29.9667 21.1791C29.7847 21.3375 29.1088 21.3904 26.3793 21.3904H23V61H55V47.7968H54.1161V59.9701H50.2168V58.8611C50.1357 58.0799 50.1357 57.2921 50.2168 56.5109C50.2838 56.4561 50.3449 56.3941 50.3988 56.326C50.7523 55.8845 50.9854 55.3563 51.0747 54.7945C51.2634 53.2975 51.3243 51.7867 51.2567 50.279C51.2567 46.899 51.1267 46.7933 50.5808 46.5557C50.0349 46.318 50.1389 46.318 50.1389 46.2388C50.1389 46.1596 49.9829 46.2388 49.775 46.2388C49.567 46.2388 49.385 46.2388 49.385 46.2388C49.385 46.2388 49.3849 46.3972 49.177 46.3972C49.1496 46.4009 49.1219 46.399 49.0952 46.3917C49.0686 46.3844 49.0437 46.3718 49.0219 46.3546C49.0002 46.3374 48.982 46.316 48.9685 46.2916C48.9549 46.2671 48.9463 46.2402 48.9431 46.2124C48.894 46.0143 48.7956 45.8324 48.6572 45.6843C48.3972 45.3938 48.1632 45.341 47.4613 45.341C46.7595 45.341 46.5255 45.341 46.4215 45.1033C46.3175 44.8657 46.0056 44.8393 45.5377 44.7865H44.7579V43.7566C44.7579 42.4627 44.5499 41.9874 43.926 41.8025C43.4741 41.6851 43.0002 41.6851 42.5482 41.8025C42.4501 41.8328 42.3609 41.8872 42.2883 41.9609C42.1718 42.0416 42.0742 42.1472 42.0023 42.2704C41.9304 42.3936 41.886 42.5314 41.8723 42.6739C41.8126 43.5531 41.8126 44.4354 41.8723 45.3146V48.2193H41.3005C40.9507 48.2491 40.621 48.398 40.3647 48.6418C40.0268 48.9851 40.0008 49.0907 40.0008 51.2825V52.0746C40.0008 52.2859 40.0008 52.4971 40.0008 52.7084C40.0008 52.9196 40.0008 53.0517 40.0008 53.2101C40.0008 53.3685 40.0008 53.2101 40.0008 53.3685C39.9742 53.4814 39.9742 53.599 40.0008 53.7118C40.3577 54.6594 40.9274 55.5094 41.6645 56.194C41.7917 56.306 41.8767 56.4593 41.9052 56.6278C41.9336 56.7963 41.9037 56.9696 41.8204 57.1182C41.6385 57.2767 41.5864 57.6728 41.5864 58.4914V59.6005H23.6499V22.1561H30.0706V23.9782H47.7212V22.1561H54.0122V43.2813L54.948 43.4133ZM49.3071 59.0987V59.9701H42.7562V57.9897H46.0316C47.1598 57.9462 48.2895 57.9904 49.411 58.1217C49.4283 58.4509 49.3933 58.7809 49.3071 59.0987ZM41.9244 54.6889C41.7164 54.4776 41.5344 54.2399 41.3784 54.0551C41.0938 53.7164 40.9371 53.2858 40.9365 52.8404C40.9365 52.4179 40.9365 51.837 40.9365 51.2296C40.9365 49.3812 40.9366 49.3283 41.3265 49.2755C41.7165 49.2227 42.0803 49.5924 42.0803 50.543C42.0803 51.4937 42.0803 51.3881 42.5482 51.3881H42.9122V47.0574C42.9122 42.6211 42.9121 42.2778 43.484 42.2778C43.6482 42.2979 43.7979 42.3834 43.9 42.5155C44.1385 43.6963 44.2086 44.9057 44.108 46.1068V49.4076H45.1477V47.5327V45.6843H45.5898C45.6866 45.667 45.786 45.6723 45.8806 45.6997C45.9752 45.7272 46.0623 45.776 46.1356 45.8427C46.2541 46.4688 46.2977 47.1072 46.2655 47.744C46.2655 49.3283 46.2656 49.4604 46.5516 49.4604C47.2794 49.4604 47.3314 49.4604 47.3314 47.876C47.3314 46.2916 47.3314 45.9747 47.7733 45.9747C48.2152 45.9747 48.2151 46.2652 48.2151 48.2457C48.2151 50.2262 48.2153 50.2262 48.9691 50.0941C49.723 49.9621 49.3329 49.9621 49.3329 48.6418C49.3329 47.3215 49.463 46.9782 50.0869 47.0574C50.7108 47.1366 50.3728 47.2687 50.5027 49.698C50.5993 51.2128 50.5559 52.7335 50.3728 54.24C50.1361 55.0992 49.7582 55.9116 49.255 56.643C49.255 56.8014 48.7091 56.8278 46.2655 56.8278C45.2008 56.8962 44.1329 56.8962 43.0682 56.8278C42.9159 56.6584 42.8165 56.4471 42.7823 56.2204C42.6302 55.6437 42.3347 55.1163 41.9244 54.6889ZM46.8635 23.1332H31.0324V19.7796H35.3477C35.5407 19.7796 35.7257 19.7016 35.8622 19.563C35.9987 19.4243 36.0755 19.2363 36.0755 19.0402V18.8817C36.1854 18.1759 36.5349 17.5314 37.0633 17.0597C37.5812 16.599 38.2464 16.3455 38.9349 16.3467C39.6498 16.3548 40.3374 16.6274 40.8686 17.1135C41.3998 17.5997 41.7382 18.2659 41.8204 18.9874C41.8203 19.186 41.8961 19.3769 42.0319 19.5197C42.1677 19.6626 42.3528 19.7463 42.5482 19.7532H46.8635V23.1332Z" stroke="black" stroke-width="2" mask="url(#path-2-outside-1_1_2)"/>
<path d="M32.5 29V29.5H33H42.5133H52H52.5V29V28.5V28V27.5H52H42.5133H33H32.5V28V28.5V29Z" fill="#4C9DE8" stroke="black"/>
<path d="M32.5 34V34.5H33H42.5133H52H52.5V34V33.5V33V32.5H52H42.5133H33H32.5V33V33.5V34Z" fill="#4C9DE8" stroke="black"/>
<path d="M32.5 40V40.5H33H42.5133H52H52.5V40V39.5V39V38.5H52H42.5133H33H32.5V39V39.5V40Z" fill="#4C9DE8" stroke="black"/>
<path d="M34.9107 51.578V55.5793H33.1265V50.0179V49.5179H32.6265H32.1253H31.5963H31.0963V50.0179V52.9846V55.477H29.0614V51.8593V51.3593H28.5614H27.587H27.087V51.8593V55.477H26H25.5V55.977V57V57.5H26H38H38.5V57V56.4885C38.5 56.4811 38.5 56.4737 38.5 56.4661C38.5001 56.3589 38.5002 56.227 38.4826 56.1151C38.4608 55.9761 38.3985 55.7742 38.198 55.6325C38.034 55.5166 37.8461 55.4953 37.7337 55.4865C37.6121 55.4769 37.4595 55.4769 37.2942 55.477H37.2761H37.0521V47V46.5H36.5521H35.4107H34.9107V47V51.578Z" fill="#4C9DE8" stroke="black"/>
<path d="M25.6179 38.8025L25.3611 39.1067L25.6001 39.4251L27.0071 41.3001L27.3853 41.8041L27.7902 41.3212L31.3832 37.0355L31.6477 36.7199L31.3887 36.3998L30.8108 35.6855L30.4303 35.2152L30.0401 35.6775L27.6278 38.5348L27.1062 37.9341L26.7233 37.4931L26.3466 37.9394L25.6179 38.8025Z" fill="#4C9DE8" stroke="black"/>
<path d="M25.6561 33.1371L25.295 33.4792L25.6353 33.8421L27.0424 35.3421L27.3874 35.7099L27.7522 35.3617L31.3452 31.9332L31.7176 31.5778L31.3516 31.2159L30.7737 30.6445L30.4295 30.3042L30.0782 30.6371L27.6284 32.9586L27.0674 32.4418L26.7238 32.1252L26.3847 32.4466L25.6561 33.1371Z" fill="#4C9DE8" stroke="black"/>
<path d="M25.6561 28.1371L25.295 28.4792L25.6353 28.8421L27.0424 30.3421L27.3874 30.7099L27.7522 30.3617L31.3452 26.9332L31.7176 26.5778L31.3516 26.2159L30.7737 25.6445L30.4295 25.3042L30.0782 25.6371L27.6284 27.9586L27.0674 27.4418L26.7238 27.1252L26.3847 27.4466L25.6561 28.1371Z" fill="#4C9DE8" stroke="black"/>
</svg>
