<svg width="75" height="75" viewBox="0 0 75 75" fill="none" xmlns="http://www.w3.org/2000/svg">
<path d="M37.5 0L69.976 18.75V56.25L37.5 75L5.02405 56.25V18.75L37.5 0Z" fill="white"/>
<g clip-path="url(#clip0_1_18)">
<path d="M13.1004 56.0732C13.0993 56.296 13.1722 56.518 13.315 56.6963C13.459 56.876 13.6665 57.0012 13.9035 57.0338L13.974 57.0435L14.8166 56.102V41.8788C14.8436 40.9401 15.0787 40.0245 15.4994 39.2109C16.2264 37.9182 16.4984 36.3866 16.2701 34.8973L16.2648 34.8633L16.255 34.8304C16.0288 34.0712 15.7077 33.3486 15.3002 32.6831L15.3 32.6827C15.0862 32.3341 14.8942 31.9698 14.7252 31.5921C14.0657 29.8932 13.6072 27.9351 13.6919 26.2151C13.7764 24.499 14.3909 23.0983 15.8002 22.3411L15.8124 22.3345L15.8241 22.3274C16.5583 21.8791 17.3818 21.6457 18.2165 21.6457C19.044 21.6457 19.8605 21.8751 20.5899 22.3158C21.5838 23.0583 22.3308 24.1478 22.7036 25.4183C23.0787 26.6965 23.0506 28.0762 22.6243 29.3344L22.6104 29.3754L22.6038 29.4181C22.3139 31.2854 21.431 32.9723 20.1213 34.1855C19.9464 34.3238 19.806 34.5008 19.7079 34.7009C19.6059 34.9089 19.5516 35.1379 19.5472 35.3694L19.5471 35.3694V35.3789V36.6833V36.6936L19.5475 36.7038C19.5533 36.8461 19.5884 36.9869 19.652 37.1159C19.7134 37.2405 19.8006 37.3524 19.9098 37.4419L19.917 37.4486C19.928 37.459 19.948 37.4785 19.9764 37.5084C20.0331 37.5684 20.1234 37.6704 20.2419 37.8258C20.479 38.1365 20.8289 38.6603 21.2496 39.4863C22.0916 41.1394 23.2136 43.9963 24.2813 48.7636L24.2877 48.7922L24.2974 48.8199C24.3568 48.9891 24.4582 49.1433 24.596 49.2637C24.7341 49.3845 24.9038 49.4666 25.0886 49.496L25.1277 49.5022H25.1673H29.6881C30.1546 49.5314 30.6222 49.5311 31.0887 49.5012L31.1114 49.4997L31.1338 49.4962C31.9423 49.3701 32.7658 49.423 33.556 49.6521C33.8069 49.7428 34.0324 49.9255 34.19 50.182C34.3475 50.4381 34.4251 50.7488 34.406 51.0645C34.3746 51.267 34.3183 51.3793 34.2661 51.4458C34.2146 51.5111 34.1406 51.566 34.0147 51.6103C33.7226 51.7131 33.2932 51.7196 32.6221 51.7196H26.6529H26.6358L26.6188 51.7208C25.762 51.7794 24.9027 51.7797 24.0458 51.7216C23.6104 51.6702 23.4337 51.573 23.3101 51.4553C23.1522 51.3051 23.0275 51.0778 22.7791 50.6105C22.6974 50.4247 22.6057 50.2441 22.5041 50.0697C21.5576 48.1442 20.7149 46.2453 19.8688 44.3098C19.8144 44.1846 19.7337 44.0702 19.6295 43.9768C19.5248 43.883 19.3993 43.8133 19.2614 43.7756C19.123 43.7378 18.9779 43.7339 18.8373 43.7645C18.6968 43.7951 18.5678 43.8587 18.4587 43.9472L18.4086 43.9879L18.3704 44.04C18.2454 44.2106 18.1804 44.417 18.1804 44.6254C18.1804 44.8085 18.2306 44.9902 18.3277 45.1474C19.125 47.1749 20.002 49.089 20.9847 50.9462L20.9864 50.9493L21.2338 51.4089C21.447 51.9951 21.8088 52.5103 22.2838 52.8921C22.7697 53.2826 23.353 53.5163 23.9651 53.559L23.9686 53.5592C24.8678 53.6156 25.7693 53.616 26.6685 53.5602H32.4629L32.4959 53.5602C33.0341 53.5603 33.8155 53.5605 34.5034 53.2947C34.8657 53.1548 35.2167 52.9367 35.4993 52.5979C35.7829 52.258 35.9758 51.8227 36.0607 51.2828L36.0647 51.2576L36.0661 51.2321C36.1051 50.5097 35.9296 49.7897 35.5607 49.1791C35.1915 48.568 34.6459 48.0953 33.9987 47.8411L33.9769 47.8326L33.9543 47.8261C32.9589 47.5393 31.9214 47.4644 30.8993 47.606C30.5125 47.6316 30.1247 47.6312 29.7379 47.6048L29.7209 47.6036H29.7039H25.9141C25.9091 47.601 25.9035 47.5972 25.8975 47.5918C25.8868 47.582 25.8754 47.5672 25.8664 47.5471C25.2154 43.4886 23.7008 39.6508 21.4415 36.3433L21.4299 36.3263L21.417 36.3104C21.3771 36.2612 21.3489 36.1938 21.3429 36.1171V35.6274C21.3462 35.5889 21.3563 35.5528 21.3716 35.5211C21.3882 35.4866 21.4096 35.46 21.4318 35.4412L21.4408 35.4336L21.4494 35.4256C23.0268 33.9528 24.0865 31.9399 24.4608 29.7276C24.9685 28.099 24.9691 26.3336 24.4618 24.7042C23.9509 23.0633 22.9515 21.6462 21.6124 20.6831L21.5949 20.6705L21.5764 20.6595C20.5772 20.0639 19.4536 19.75 18.3093 19.75C17.1685 19.75 16.0484 20.062 15.0515 20.654C12.9796 21.7745 12.108 23.7621 11.9542 25.901C11.8011 28.0312 12.35 30.3648 13.1653 32.3246L13.1652 32.3246L13.1686 32.3323C13.3662 32.7857 13.5865 33.2271 13.8286 33.6544L13.8361 33.6675L13.8443 33.6802C14.1647 34.1737 14.4097 34.7227 14.5687 35.3056C14.7154 36.3655 14.5082 37.4454 13.9894 38.347L13.9852 38.3543L13.9812 38.3618C13.4285 39.4026 13.1264 40.5761 13.1005 41.774L13.1004 41.774V41.7848V43.408V43.4095V43.411V43.4125V43.4141V43.4156V43.4171V43.4187V43.4202V43.4217V43.4232V43.4248V43.4263V43.4278V43.4294V43.4309V43.4324V43.4339V43.4355V43.437V43.4385V43.4401V43.4416V43.4431V43.4446V43.4462V43.4477V43.4492V43.4508V43.4523V43.4538V43.4553V43.4569V43.4584V43.4599V43.4615V43.463V43.4645V43.466V43.4676V43.4691V43.4706V43.4722V43.4737V43.4752V43.4767V43.4783V43.4798V43.4813V43.4829V43.4844V43.4859V43.4874V43.489V43.4905V43.492V43.4936V43.4951V43.4966V43.4981V43.4997V43.5012V43.5027V43.5043V43.5058V43.5073V43.5088V43.5104V43.5119V43.5134V43.515V43.5165V43.518V43.5195V43.5211V43.5226V43.5241V43.5257V43.5272V43.5287V43.5302V43.5318V43.5333V43.5348V43.5364V43.5379V43.5394V43.5409V43.5425V43.544V43.5455V43.5471V43.5486V43.5501V43.5516V43.5532V43.5547V43.5562V43.5578V43.5593V43.5608V43.5623V43.5639V43.5654V43.5669V43.5685V43.57V43.5715V43.573V43.5746V43.5761V43.5776V43.5792V43.5807V43.5822V43.5837V43.5853V43.5868V43.5883V43.5899V43.5914V43.5929V43.5944V43.596V43.5975V43.599V43.6006V43.6021V43.6036V43.6051V43.6067V43.6082V43.6097V43.6113V43.6128V43.6143V43.6158V43.6174V43.6189V43.6204V43.622V43.6235V43.625V43.6265V43.6281V43.6296V43.6311V43.6327V43.6342V43.6357V43.6372V43.6388V43.6403V43.6418V43.6434V43.6449V43.6464V43.6479V43.6495V43.651V43.6525V43.6541V43.6556V43.6571V43.6586V43.6602V43.6617V43.6632V43.6648V43.6663V43.6678V43.6693V43.6709V43.6724V43.6739V43.6755V43.677V43.6785V43.68V43.6816V43.6831V43.6846V43.6862V43.6877V43.6892V43.6907V43.6923V43.6938V43.6953V43.6969V43.6984V43.6999V43.7014V43.703V43.7045V43.706V43.7076V43.7091V43.7106V43.7121V43.7137V43.7152V43.7167V43.7183V43.7198V43.7213V43.7228V43.7244V43.7259V43.7274V43.729V43.7305V43.732V43.7335V43.7351V43.7366V43.7381V43.7397V43.7412V43.7427V43.7442V43.7458V43.7473V43.7488V43.7504V43.7519V43.7534V43.7549V43.7565V43.758V43.7595V43.7611V43.7626V43.7641V43.7656V43.7672V43.7687V43.7702V43.7718V43.7733V43.7748V43.7763V43.7779V43.7794V43.7809V43.7825V43.784V43.7855V43.787V43.7886V43.7901V43.7916V43.7932V43.7947V43.7962V43.7977V43.7993V43.8008V43.8023V43.8039V43.8054V43.8069V43.8084V43.81V43.8115V43.813V43.8146V43.8161V43.8176V43.8191V43.8207V43.8222V43.8237V43.8253V43.8268V43.8283V43.8298V43.8314V43.8329V43.8344V43.836V43.8375V43.839V43.8405V43.8421V43.8436V43.8451V43.8467V43.8482V43.8497V43.8512V43.8528V43.8543V43.8558V43.8574V43.8589V43.8604V43.8619V43.8635V43.865V43.8665V43.8681V43.8696V43.8711V43.8726V43.8742V43.8757V43.8772V43.8788V43.8803V43.8818V43.8833V43.8849V43.8864V43.8879V43.8895V43.891V43.8925V43.894V43.8956V43.8971V43.8986V43.9002V43.9017V43.9032V43.9047V43.9063V43.9078V43.9093V43.9109V43.9124V43.9139V43.9154V43.917V43.9185V43.92V43.9216V43.9231V43.9246V43.9261V43.9277V43.9292V43.9307V43.9323V43.9338V43.9353V43.9368V43.9384V43.9399V43.9414V43.943V43.9445V43.946V43.9475V43.9491V43.9506V43.9521V43.9537V43.9552V43.9567V43.9582V43.9598V43.9613V43.9628V43.9644V43.9659V43.9674V43.9689V43.9705V43.972V43.9735V43.9751V43.9766V43.9781V43.9796V43.9812V43.9827V43.9842V43.9858V43.9873V43.9888V43.9903V43.9919V43.9934V43.9949V43.9965V43.998V43.9995V44.001V44.0026V44.0041V44.0056V44.0072V44.0087V44.0102V44.0117V44.0133V44.0148V44.0163V44.0179V44.0194V44.0209V44.0224V44.024V44.0255V44.027V44.0286V44.0301V44.0316V44.0331V44.0347V44.0362V44.0377V44.0393V44.0408V44.0423V44.0438V44.0454V44.0469V44.0484V44.05V44.0515V44.053V44.0545V44.0561V44.0576V44.0591V44.0607V44.0622V44.0637V44.0652V44.0668V44.0683V44.0698V44.0714V44.0729V44.0744V44.0759V44.0775V44.079V44.0805V44.0821V44.0836V44.0851V44.0866V44.0882V44.0897V44.0912V44.0928V44.0943V44.0958V44.0973V44.0989V44.1004V44.1019V44.1035V44.105V44.1065V44.108V44.1096V44.1111V44.1126V44.1142V44.1157V44.1172V44.1187V44.1203V44.1218V44.1233V44.1249V44.1264V44.1279V44.1294V44.131V44.1325V44.134V44.1356V44.1371V44.1386V44.1401V44.1417V44.1432V44.1447V44.1463V44.1478V44.1493V44.1508V44.1524V44.1539V44.1554V44.157V44.1585V44.16V44.1615V44.1631V44.1646V44.1661V44.1677V44.1692V44.1707V44.1722V44.1738V44.1753V44.1768V44.1784V44.1799V44.1814V44.1829V44.1845V44.186V44.1875V44.1891V44.1906V56.0732ZM13.1004 56.0732C13.1004 56.0725 13.1004 56.0718 13.1004 56.0711L13.6001 56.0747H13.1004V56.0732Z" fill="#FF5849" stroke="#FF5849"/>
<path d="M63.0714 44.9601V44.5805L62.8113 44.5079C62.7011 43.8362 62.467 43.1935 62.1205 42.621C61.7153 41.9516 61.1672 41.3961 60.519 41.0067L60.4856 40.9866L60.4494 40.9719C59.0396 40.4002 57.6014 39.9188 56.1418 39.5303L56.1152 39.5233L56.088 39.5191C55.8721 39.4865 55.6621 39.3827 55.4863 39.2112L55.4863 39.2112L55.48 39.2052C55.3373 39.0708 55.2171 38.9031 55.1289 38.7102C55.0427 38.5217 54.9894 38.3145 54.9734 38.1002V37.0218V36.9512C55.891 35.941 56.618 34.7405 57.1143 33.4199C57.6303 32.0467 57.8863 30.5715 57.8679 29.0858C57.9973 28.1563 57.9409 27.206 57.7018 26.3024C57.4593 25.3858 57.0342 24.5378 56.455 23.8223L56.4404 23.8043L56.4242 23.7877C55.1698 22.5025 53.5297 21.759 51.8054 21.7117L51.7913 21.7113L51.7772 21.7118C50.0539 21.7619 48.4152 22.5047 47.1597 23.7871L47.1432 23.804L47.1284 23.8223C46.5492 24.5378 46.1241 25.3858 45.8816 26.3024C45.6425 27.2059 45.5859 28.1562 45.7154 29.0858C45.6969 30.5715 45.9531 32.0468 46.4691 33.4199C46.9891 34.8036 47.7624 36.0554 48.7427 37.0946V38.1062C48.7321 38.3201 48.6815 38.5276 48.5958 38.715C48.5088 38.9054 48.3884 39.0688 48.2456 39.1966L48.2376 39.2037L48.23 39.2111C48.0577 39.379 47.853 39.4835 47.6415 39.5213L47.621 39.5249L47.601 39.5303C46.1335 39.92 44.687 40.4011 43.2682 40.9714L43.2357 40.9844L43.2053 41.0019C42.5458 41.3812 41.9887 41.936 41.5809 42.6099C41.1731 43.2837 40.926 44.0572 40.8589 44.8592L40.8571 44.88V44.9009V48.1888C40.8571 48.4384 40.9456 48.6873 41.1171 48.8786C41.2901 49.0716 41.5373 49.1923 41.8085 49.1923C42.0794 49.1923 42.3268 49.0718 42.5 48.8786C42.6718 48.687 42.7598 48.438 42.7598 48.1888V44.9765C42.8733 44.3845 43.1232 43.8407 43.4801 43.3983C43.8429 42.9486 44.3015 42.6216 44.8046 42.4439C45.2502 42.3094 45.6461 42.1808 46.0216 42.0589C46.507 41.9013 46.9583 41.7547 47.4389 41.6207L47.4389 41.6207L47.4429 41.6195C48.2806 41.3784 49.1268 41.058 49.7643 40.5011C50.4283 39.921 50.8314 39.1152 50.8314 37.9993V37.9976V37.9958V37.9941V37.9923V37.9906V37.9889V37.9871V37.9854V37.9837V37.9819V37.9802V37.9785V37.9767V37.975V37.9733V37.9715V37.9698V37.9681V37.9663V37.9646V37.9628V37.9611V37.9594V37.9576V37.9559V37.9542V37.9524V37.9507V37.949V37.9472V37.9455V37.9437V37.942V37.9403V37.9385V37.9368V37.9351V37.9333V37.9316V37.9299V37.9281V37.9264V37.9246V37.9229V37.9212V37.9194V37.9177V37.916V37.9142V37.9125V37.9107V37.909V37.9073V37.9055V37.9038V37.9021V37.9003V37.8986V37.8968V37.8951V37.8934V37.8916V37.8899V37.8882V37.8864V37.8847V37.8829V37.8812V37.8795V37.8777V37.876V37.8742V37.8725V37.8708V37.869V37.8673V37.8656V37.8638V37.8621V37.8603V37.8586V37.8569V37.8551V37.8534V37.8516V37.8499V37.8482V37.8464V37.8447V37.8429V37.8412V37.8394V37.8377V37.836V37.8342V37.8325V37.8307V37.829V37.8273V37.8255V37.8238V37.822V37.8203V37.8185V37.8168V37.8151V37.8133V37.8116V37.8098V37.8081V37.8063V37.8046V37.8029V37.8011V37.7994V37.7976V37.7959V37.7941V37.7924V37.7906V37.7889V37.7872V37.7854V37.7837V37.7819V37.7802V37.7784V37.7767V37.7749V37.7732V37.7714V37.7697V37.7679V37.7662V37.7644V37.7627V37.761V37.7592V37.7575V37.7557V37.754V37.7522V37.7505V37.7487V37.747V37.7452V37.7435V37.7417V37.74V37.7382V37.7365V37.7347V37.733V37.7312V37.7295V37.7277V37.726V37.7242V37.7224V37.7207V37.7189V37.7172V37.7154V37.7137V37.7119V37.7102V37.7084V37.7067V37.7049V37.7032V37.7014V37.6997V37.6979V37.6961V37.6944V37.6926V37.6909V37.6891V37.6874V37.6856V37.6838V37.6821V37.6803V37.6786V37.6768V37.6751V37.6733V37.6715V37.6698V37.668V37.6663V37.6645V37.6627V37.661V37.6592V37.6575V37.6557V37.6539V37.6522V37.6504V37.6487V37.6469V37.6451V37.6434V37.6416V37.6398V37.6381V37.6363V37.6345V37.6328V37.631V37.6292V37.6275V37.6257V37.624V37.6222V37.6204V37.6187V37.6169V37.6151V37.6133V37.6116V37.6098V37.608V37.6063V37.6045V37.6027V37.601V37.5992V37.5974V37.5957V37.5939V37.5921V37.5903V37.5886V37.5868V37.585V37.5833V37.5815V37.5797V37.5779V37.5762V37.5744V37.5726V37.5708V37.5691V37.5673V37.5655V37.5637V37.562V37.5602V37.5584V37.5566V37.5548V37.5531V37.5513V37.5495V37.5477V37.5459V37.5442V37.5424V37.5406V37.5388V37.537V37.5353V37.5335V37.5317V37.5299V37.5281V37.5263V37.5246V37.5228V37.521V37.5192V37.5174V37.5156V37.5139V37.5121V37.5103V37.5085V37.5067V37.5049V37.5031V37.5013V37.4995V37.4978V37.496V37.4942V37.4924V37.4906V37.4888V37.487V37.4852V37.4834V37.4816V37.4798V37.478V37.4763V37.4745V37.4727V37.4709V37.4691V37.4673V37.4655V37.4637V37.4619V37.4601V37.4583V37.4565V37.4547V37.4529V37.4511V37.4493V37.4475V37.4457V37.4439V37.4421V37.4403V37.4385V37.4367V37.4349V37.4331V37.4313V37.4295V37.4277V37.4259V37.424V37.4222V37.4204V37.4186V37.4168V37.415V37.4132V37.4114V37.4096V37.4078V37.406V37.4042V37.4023V37.4005V37.3987V37.3969V37.3951V37.3933V37.3915V37.3896V37.3878V37.386V37.3842V37.3824V37.3806V37.3787V37.3769V37.3751V37.3733V37.3715V37.3697V37.3678V37.366V37.3642V37.3624V37.3605V37.3587V37.3569V37.3551V37.3533V37.3514V37.3496V37.3478V37.346V37.3441V37.3423V37.3405V37.3386V37.3368V37.335V37.3332V37.3313V37.3295V37.3277V37.3258V37.324V37.3222V37.3203V37.3185V37.3167V37.3148V37.313V37.3112V37.3093V37.3075V37.3057V37.3038V37.302V37.3001V37.2983V37.2965V37.2946V37.2928V37.2909V37.2891V37.2873V37.2854V37.2836V37.2817V37.2799V37.278V37.2762V37.2743V37.2725V37.2707V37.2688V37.267V37.2651V37.2633V37.2614V37.2596V37.2577V37.2559V37.254V37.2522V37.2503V37.2484V37.2466V37.2447V37.2429V37.241V37.2392V37.2373V37.2355V37.2336V37.2317V37.2299V37.228V37.2262V37.2243V37.2224V37.2206V37.2187V37.2168V37.215V37.2131V37.2113V37.2094V37.2075V37.2057V37.2038V37.2019V37.2V37.1982V37.1963V37.1944V37.1926V37.1907V37.1888V37.1869V37.1851V37.1832V37.1813V37.1795V37.1776V37.1757V37.1738V37.1719V37.1701V37.1682V37.1663V37.1644V37.1625V37.1607V37.1588V37.1569V37.155V37.1531V37.1512V37.1494V37.1475V37.1456V37.1437V37.1418V37.1399V37.138V37.1361V37.1343V37.1324V37.1305V37.1286V37.1267V37.1248V37.1229V37.121V37.1191V37.1172V37.1153V37.1134V37.1115V37.1096V37.1077V37.1058V37.1039V37.102V37.1001V37.0982V37.0963V37.0944V37.0925V37.0906V37.0887V37.0868V37.0849V37.083V37.0811V36.6438C50.8357 36.4691 50.7953 36.2939 50.7115 36.1381C50.6259 35.9789 50.4958 35.8423 50.3305 35.7528L50.2613 35.7153L50.2417 35.7116C50.2358 35.708 50.2287 35.7036 50.2207 35.6983C50.1715 35.666 50.0946 35.6087 49.9973 35.518C49.8034 35.3373 49.5338 35.0292 49.2464 34.537C48.6716 33.5528 48.0237 31.8292 47.7762 28.9226L47.7749 28.9078L47.7728 28.8931C47.6744 28.2162 47.7125 27.5234 47.8838 26.8659C48.0528 26.2177 48.3465 25.6225 48.7409 25.1214C49.6439 24.2202 50.7868 23.6991 51.9771 23.6306C53.1756 23.7017 54.3266 24.2224 55.2411 25.1219C55.6316 25.6236 55.9211 26.2185 56.0856 26.8658C56.2528 27.5231 56.2861 28.2148 56.1828 28.8893L56.1794 28.9113L56.178 28.9335C55.9961 31.8188 55.349 33.5478 54.777 34.5393C54.4907 35.0355 54.2212 35.3507 54.0332 35.5362C53.9391 35.6292 53.8648 35.6902 53.8184 35.7254C53.7975 35.7413 53.7821 35.752 53.7732 35.7581C53.61 35.845 53.482 35.979 53.3981 36.1349C53.3124 36.2943 53.2738 36.4741 53.283 36.652V37.0696C53.2687 37.387 53.2688 37.705 53.2836 38.0225L53.2836 38.0225L53.2838 38.0264C53.3434 39.1237 53.7397 39.9183 54.381 40.4961C55.0012 41.0547 55.8139 41.3764 56.6429 41.6189L56.6429 41.619L56.649 41.6207C57.4798 41.8524 58.3148 42.1432 59.1364 42.4389L59.1409 42.4405C59.6477 42.6174 60.1097 42.9456 60.4749 43.3983C60.8318 43.8407 61.0817 44.3845 61.1952 44.9765V48.1888V48.2004L61.1957 48.212C61.2018 48.3423 61.2319 48.4709 61.2852 48.5904C61.3386 48.7102 61.4151 48.8204 61.513 48.9123C61.6106 49.004 61.7277 49.0759 61.8586 49.1196C61.9895 49.1632 62.1285 49.1767 62.2659 49.1583L62.2817 49.1562L62.2972 49.1531C62.5233 49.1081 62.7173 48.9808 62.8535 48.8071C62.989 48.6344 63.0627 48.4229 63.0711 48.2082L63.0714 48.1985V48.1888V44.9601ZM50.265 35.7249C50.2647 35.7247 50.2643 35.7246 50.2638 35.7243C50.2713 35.7276 50.2722 35.7285 50.265 35.7249Z" fill="#FF5849" stroke="#FF5849"/>
<path d="M23.5 57.1832C23.5001 57.2898 23.5204 57.3953 23.5595 57.494C23.5989 57.5933 23.6571 57.6851 23.7322 57.7636C23.8072 57.842 23.8974 57.9054 23.9983 57.949C24.0991 57.9927 24.208 58.0156 24.3189 58.0156H60.2502C60.3913 58.0293 60.5332 58.0042 60.6612 57.9435C60.8043 57.8754 60.9213 57.7669 61.0009 57.635L61.0145 57.6124L61.0257 57.5885L63.9441 51.3496C64.0048 51.2327 64.0357 51.1034 64.0357 50.9733C64.0357 50.8366 64.0015 50.7005 63.9343 50.5788L63.9294 50.5698L63.9241 50.5611C63.8556 50.4483 63.7615 50.3518 63.6482 50.2807C63.5345 50.2094 63.4049 50.166 63.27 50.1554L63.2504 50.1538H63.2307H41.4891C41.2646 50.1538 41.054 50.2472 40.9023 50.4058C40.7514 50.5636 40.6701 50.773 40.6701 50.9872C40.6701 51.094 40.6904 51.1999 40.7296 51.299C40.769 51.3984 40.8273 51.4902 40.9023 51.5686C40.9773 51.647 41.0676 51.7104 41.1684 51.754C41.2692 51.7977 41.3782 51.8206 41.4891 51.8206H61.9589L59.7793 56.3766H24.3368C24.2336 56.3707 24.1302 56.3854 24.0326 56.4199C23.9253 56.4577 23.8291 56.5179 23.749 56.5947C23.6691 56.6713 23.6059 56.7636 23.5633 56.8655C23.521 56.9664 23.4997 57.0746 23.5 57.1832ZM23.5 57.1832C23.5 57.1835 23.5 57.1839 23.5 57.1842L24 57.1822H23.5C23.5 57.1826 23.5 57.1829 23.5 57.1832Z" fill="#FF5849" stroke="#FF5849"/>
<path d="M28.3214 16.4778V16.4938L28.3225 16.5099C28.3949 17.6365 28.7557 18.7233 29.3689 19.6543C29.9099 20.4758 30.6302 21.1497 31.4697 21.6195L30.2299 24.214C30.1427 24.3539 30.0972 24.5156 30.0972 24.6793C30.0972 24.8603 30.1528 25.0387 30.2589 25.188L30.2752 25.2109L30.2939 25.2318C30.4471 25.403 30.6636 25.5098 30.8993 25.5196L30.9097 25.52H30.9201H31.0584H31.1723L31.2749 25.4707L35.8842 23.2575C36.1239 23.1465 36.3814 23.0885 36.6412 23.0863C38.9415 23.0859 41.0439 22.381 42.5822 21.2177C44.1213 20.0538 45.1185 18.4088 45.1185 16.5508C45.1185 12.8359 41.3407 9.94231 36.7776 9.94231C34.4875 9.94231 32.3902 10.6476 30.8544 11.8112C29.3185 12.975 28.3214 14.6199 28.3214 16.4778ZM34.6684 21.893L32.9078 22.7376L33.2851 21.9507L33.2861 21.9485L33.4462 21.6104C33.5407 21.4156 33.5599 21.1921 33.5008 20.9842C33.4412 20.7745 33.3043 20.5903 33.1111 20.4764L33.0735 20.4542L33.0325 20.4389C32.25 20.1458 31.5601 19.6196 31.0474 18.9191C30.5386 18.2237 30.2269 17.3867 30.1518 16.5065C30.1593 15.2657 30.8585 14.0896 32.0712 13.2037C33.2891 12.3138 34.9938 11.7454 36.8929 11.7454C38.7898 11.7454 40.5006 12.3248 41.7259 13.2216C42.9541 14.1207 43.6573 15.3056 43.6573 16.5265C43.6573 17.7417 42.9544 18.883 41.7269 19.7504C40.5008 20.6168 38.7905 21.1754 36.9067 21.2103L36.416 21.2194V21.2786C36.0424 21.3179 35.6762 21.4159 35.3297 21.5695L35.321 21.5733L35.3124 21.5776L34.6684 21.893Z" fill="#FF5849" stroke="#FF5849"/>
</g>
<defs>
<clipPath id="clip0_1_18">
<rect width="54" height="51" fill="white" transform="translate(10.5 7.5)"/>
</clipPath>
</defs>
</svg>
