<svg width="407" height="137" viewBox="0 0 407 137" fill="none" xmlns="http://www.w3.org/2000/svg">
<path d="M356.164 119.65C355.77 119.672 355.381 119.558 355.053 119.327C354.726 119.096 354.479 118.759 354.35 118.369L352.102 111.569C351.134 108.61 349.459 105.958 347.237 103.866C345.015 101.775 342.32 100.314 339.411 99.6236L332.723 98.0124C332.338 97.9196 331.993 97.6983 331.739 97.3819C331.485 97.0655 331.335 96.6715 331.313 96.2591C331.291 95.8468 331.398 95.4386 331.617 95.0964C331.836 94.7542 332.156 94.4963 332.528 94.362L339.007 92.0295C341.826 91.0247 344.35 89.278 346.337 86.9561C348.324 84.6341 349.708 81.8146 350.356 78.767L351.87 71.7609C351.957 71.3585 352.167 70.9973 352.468 70.7319C352.768 70.4665 353.144 70.3113 353.537 70.2898C353.93 70.2682 354.32 70.3815 354.647 70.6125C354.975 70.8435 355.222 71.1796 355.351 71.5701L357.599 78.3701C358.567 81.3291 360.242 83.981 362.464 86.0722C364.686 88.1635 367.381 89.6243 370.29 90.3151L376.978 91.9263C377.363 92.0191 377.708 92.2404 377.962 92.5568C378.216 92.873 378.366 93.2672 378.388 93.6796C378.41 94.0919 378.303 94.5 378.084 94.8423C377.865 95.1845 377.545 95.4422 377.173 95.5765L370.694 97.9092C367.875 98.914 365.351 100.661 363.364 102.983C361.377 105.305 359.993 108.124 359.345 111.172L357.831 118.178C357.744 118.58 357.535 118.942 357.234 119.208C356.933 119.473 356.557 119.629 356.164 119.65ZM339.713 95.7988L340.204 95.9192C343.715 96.753 346.967 98.5161 349.648 101.04C352.33 103.564 354.352 106.764 355.521 110.335L355.687 110.834L355.801 110.32C356.584 106.642 358.254 103.239 360.652 100.437C363.05 97.6348 366.096 95.5266 369.498 94.3139L369.973 94.1407L369.482 94.0203C365.971 93.1865 362.719 91.4234 360.038 88.8994C357.357 86.3755 355.335 83.1752 354.166 79.6042L354.006 79.1001L353.893 79.6141C353.11 83.292 351.44 86.6948 349.041 89.4969C346.643 92.2993 343.598 94.4073 340.195 95.62L339.713 95.7988Z" fill="#1C1A4A"/>
<path d="M393.572 126.466C393.349 126.478 393.128 126.414 392.942 126.283C392.756 126.151 392.616 125.96 392.542 125.738L391.266 121.877C390.716 120.196 389.765 118.69 388.503 117.503C387.241 116.315 385.711 115.486 384.059 115.093L380.26 114.178C380.042 114.126 379.846 114 379.702 113.82C379.557 113.641 379.473 113.417 379.46 113.183C379.448 112.949 379.508 112.717 379.633 112.522C379.757 112.328 379.939 112.182 380.15 112.106L383.829 110.781C385.43 110.21 386.863 109.218 387.992 107.9C389.12 106.581 389.906 104.98 390.274 103.249L391.134 99.2707C391.183 99.0422 391.302 98.8371 391.473 98.6862C391.644 98.5356 391.857 98.4474 392.081 98.4353C392.304 98.423 392.525 98.4872 392.711 98.6185C392.897 98.7497 393.037 98.9406 393.111 99.1622L394.387 103.024C394.937 104.704 395.888 106.21 397.15 107.398C398.412 108.585 399.942 109.415 401.594 109.807L405.393 110.722C405.611 110.775 405.807 110.901 405.951 111.08C406.095 111.26 406.18 111.484 406.193 111.718C406.205 111.952 406.145 112.184 406.02 112.378C405.896 112.572 405.714 112.719 405.503 112.795L401.824 114.12C400.223 114.69 398.79 115.682 397.661 117.001C396.533 118.32 395.747 119.921 395.379 121.651L394.519 125.63C394.47 125.859 394.351 126.064 394.18 126.215C394.009 126.366 393.796 126.454 393.572 126.466ZM384.23 112.921L384.509 112.99C386.503 113.463 388.35 114.464 389.872 115.898C391.395 117.331 392.543 119.148 393.207 121.176L393.302 121.459L393.366 121.168C393.811 119.079 394.759 117.147 396.121 115.555C397.483 113.964 399.212 112.767 401.145 112.078L401.414 111.98L401.136 111.911C399.142 111.438 397.295 110.437 395.772 109.003C394.25 107.57 393.101 105.753 392.438 103.725L392.347 103.438L392.283 103.73C391.838 105.819 390.889 107.751 389.528 109.343C388.166 110.934 386.436 112.131 384.504 112.82L384.23 112.921Z" fill="#1C1A4A"/>
<g clip-path="url(#clip0_49_1982)">
<path d="M79.6498 31.7638C79.3994 31.7773 79.1514 31.7061 78.9431 31.5611C78.7348 31.4161 78.5777 31.2051 78.4955 30.96L77.0649 26.6956C76.4488 24.84 75.3828 23.1769 73.9688 21.8655C72.5549 20.554 70.8402 19.6378 68.9888 19.2047L64.7325 18.1943C64.4881 18.1361 64.2684 17.9973 64.1066 17.7989C63.9448 17.6005 63.8497 17.3534 63.8358 17.0948C63.8218 16.8362 63.8897 16.5802 64.0292 16.3656C64.1687 16.151 64.3722 15.9893 64.6089 15.9051L68.7316 14.4423C70.5256 13.8122 72.1316 12.7168 73.3961 11.2607C74.6606 9.80448 75.5413 8.03631 75.9541 6.1251L76.9171 1.73143C76.9726 1.47911 77.1061 1.25262 77.2976 1.08617C77.489 0.919726 77.7279 0.82239 77.9782 0.808876C78.2284 0.795362 78.4764 0.866404 78.6847 1.01127C78.8929 1.15612 79.0501 1.36692 79.1324 1.61179L80.563 5.87621C81.1792 7.73185 82.2452 9.39489 83.6591 10.7064C85.0731 12.0179 86.7877 12.934 88.6391 13.3672L92.8954 14.3776C93.1398 14.4358 93.3595 14.5746 93.5213 14.773C93.6831 14.9713 93.7782 15.2185 93.7921 15.4771C93.8061 15.7357 93.7382 15.9916 93.5987 16.2063C93.4593 16.4209 93.2558 16.5825 93.019 16.6667L88.8963 18.1296C87.1023 18.7597 85.4963 19.8551 84.2318 21.3112C82.9673 22.7674 82.0866 24.5355 81.6739 26.4467L80.7108 30.8404C80.6555 31.0929 80.522 31.3196 80.3306 31.4862C80.1391 31.6528 79.9002 31.7502 79.6498 31.7638ZM69.1813 16.8061L69.4935 16.8816C71.7279 17.4045 73.7972 18.5102 75.5036 20.093C77.21 21.6758 78.4966 23.6828 79.2404 25.9222L79.3466 26.2349L79.4186 25.9126C79.9168 23.6061 80.9798 21.4722 82.5058 19.7148C84.0319 17.9575 85.97 16.6354 88.1351 15.8749L88.4374 15.7663L88.1252 15.6908C85.8908 15.1679 83.8215 14.0622 82.1151 12.4794C80.4087 10.8966 79.1221 8.88958 78.3784 6.65013L78.2765 6.33402L78.2046 6.65633C77.7063 8.96284 76.6434 11.0968 75.1173 12.8541C73.5913 14.6115 71.6531 15.9335 69.488 16.694L69.1813 16.8061Z" fill="#1C1A4A"/>
<path d="M103.455 36.0381C103.313 36.0458 103.172 36.0054 103.054 35.923C102.936 35.8407 102.846 35.7208 102.8 35.5817L101.987 33.16C101.637 32.1062 101.032 31.1618 100.229 30.417C99.4261 29.6722 98.4523 29.152 97.4009 28.906L94.9839 28.3322C94.8451 28.2992 94.7203 28.2203 94.6284 28.1077C94.5365 27.995 94.4826 27.8547 94.4746 27.7078C94.4667 27.561 94.5053 27.4156 94.5845 27.2937C94.6637 27.1719 94.7792 27.0801 94.9137 27.0323L97.2549 26.2015C98.2737 25.8437 99.1857 25.2216 99.9038 24.3947C100.622 23.5678 101.122 22.5637 101.356 21.4784L101.903 18.9833C101.935 18.84 102.011 18.7114 102.119 18.6168C102.228 18.5223 102.364 18.467 102.506 18.4594C102.648 18.4517 102.789 18.492 102.907 18.5743C103.025 18.6566 103.115 18.7763 103.161 18.9153L103.974 21.337C104.324 22.3908 104.929 23.3352 105.732 24.08C106.535 24.8248 107.509 25.345 108.56 25.591L110.977 26.1648C111.116 26.1979 111.241 26.2767 111.333 26.3893C111.424 26.502 111.478 26.6423 111.486 26.7892C111.494 26.936 111.456 27.0814 111.377 27.2033C111.297 27.3251 111.182 27.4169 111.047 27.4648L108.706 28.2955C107.687 28.6533 106.775 29.2754 106.057 30.1023C105.339 30.9292 104.839 31.9333 104.605 33.0187L104.058 35.5137C104.026 35.6571 103.951 35.7858 103.842 35.8805C103.733 35.9751 103.597 36.0304 103.455 36.0381ZM97.5103 27.5439L97.6876 27.5868C98.9564 27.8837 100.132 28.5116 101.101 29.4104C102.07 30.3093 102.8 31.449 103.223 32.7208L103.283 32.8983L103.324 32.7153C103.607 31.4055 104.21 30.1937 105.077 29.1957C105.944 28.1977 107.044 27.447 108.274 27.0151L108.446 26.9534L108.268 26.9105C106.999 26.6136 105.824 25.9857 104.855 25.0868C103.886 24.188 103.156 23.0483 102.733 21.7765L102.675 21.597L102.634 21.78C102.352 23.0899 101.748 24.3017 100.881 25.2996C100.015 26.2976 98.914 27.0484 97.6845 27.4803L97.5103 27.5439Z" fill="#1C1A4A"/>
</g>
<g clip-path="url(#clip1_49_1982)">
<path d="M16.6498 131.764C16.3994 131.777 16.1514 131.706 15.9431 131.561C15.7348 131.416 15.5777 131.205 15.4955 130.96L14.0649 126.695C13.4488 124.84 12.3828 123.177 10.9688 121.865C9.55485 120.554 7.84023 119.638 5.9888 119.205L1.7325 118.194C1.48808 118.136 1.26837 117.997 1.10658 117.799C0.944802 117.6 0.849742 117.353 0.835777 117.095C0.821813 116.836 0.889704 116.58 1.02918 116.365C1.16866 116.151 1.37215 115.989 1.60889 115.905L5.73162 114.442C7.52563 113.812 9.13163 112.717 10.3961 111.261C11.6606 109.804 12.5413 108.036 12.9541 106.125L13.9171 101.731C13.9726 101.479 14.1061 101.253 14.2976 101.086C14.489 100.92 14.7279 100.822 14.9782 100.809C15.2284 100.795 15.4764 100.866 15.6847 101.011C15.8929 101.156 16.0501 101.367 16.1324 101.612L17.563 105.876C18.1792 107.732 19.2452 109.395 20.6591 110.706C22.0731 112.018 23.7877 112.934 25.6391 113.367L29.8954 114.377C30.1398 114.436 30.3595 114.574 30.5213 114.773C30.6831 114.971 30.7782 115.218 30.7921 115.477C30.8061 115.736 30.7382 115.991 30.5987 116.206C30.4593 116.421 30.2558 116.582 30.019 116.667L25.8963 118.129C24.1023 118.76 22.4963 119.855 21.2318 121.311C19.9673 122.767 19.0866 124.535 18.6739 126.447L17.7108 130.84C17.6555 131.093 17.522 131.319 17.3306 131.486C17.1391 131.653 16.9002 131.75 16.6498 131.764ZM6.1813 116.806L6.49353 116.881C8.72791 117.404 10.7972 118.51 12.5036 120.093C14.21 121.676 15.4966 123.683 16.2404 125.922L16.3466 126.235L16.4186 125.912C16.9168 123.606 17.9798 121.472 19.5058 119.715C21.0319 117.957 22.97 116.635 25.1351 115.875L25.4374 115.766L25.1252 115.691C22.8908 115.168 20.8215 114.062 19.1151 112.479C17.4087 110.896 16.1221 108.89 15.3784 106.65L15.2765 106.334L15.2046 106.656C14.7063 108.963 13.6434 111.097 12.1173 112.854C10.5913 114.611 8.65309 115.933 6.48802 116.694L6.1813 116.806Z" fill="#1C1A4A"/>
<path d="M40.4551 136.038C40.313 136.046 40.1721 136.005 40.0538 135.923C39.9355 135.841 39.8463 135.721 39.7996 135.582L38.9872 133.16C38.6373 132.106 38.032 131.162 37.229 130.417C36.4261 129.672 35.4523 129.152 34.4009 128.906L31.9839 128.332C31.8451 128.299 31.7203 128.22 31.6284 128.108C31.5365 127.995 31.4826 127.855 31.4746 127.708C31.4667 127.561 31.5053 127.416 31.5845 127.294C31.6637 127.172 31.7792 127.08 31.9137 127.032L34.2549 126.202C35.2737 125.844 36.1857 125.222 36.9038 124.395C37.6219 123.568 38.122 122.564 38.3564 121.478L38.9033 118.983C38.9348 118.84 39.0106 118.711 39.1194 118.617C39.2281 118.522 39.3637 118.467 39.5059 118.459C39.648 118.452 39.7888 118.492 39.9071 118.574C40.0253 118.657 40.1146 118.776 40.1613 118.915L40.9737 121.337C41.3237 122.391 41.929 123.335 42.732 124.08C43.5349 124.825 44.5086 125.345 45.56 125.591L47.9771 126.165C48.1159 126.198 48.2407 126.277 48.3326 126.389C48.4244 126.502 48.4784 126.642 48.4863 126.789C48.4943 126.936 48.4557 127.081 48.3765 127.203C48.2973 127.325 48.1817 127.417 48.0473 127.465L45.7061 128.296C44.6873 128.653 43.7753 129.275 43.0572 130.102C42.3391 130.929 41.839 131.933 41.6046 133.019L41.0577 135.514C41.0263 135.657 40.9505 135.786 40.8417 135.881C40.733 135.975 40.5973 136.03 40.4551 136.038ZM34.5103 127.544L34.6876 127.587C35.9564 127.884 37.1315 128.512 38.1006 129.41C39.0696 130.309 39.8003 131.449 40.2226 132.721L40.283 132.898L40.3238 132.715C40.6068 131.406 41.2104 130.194 42.077 129.196C42.9437 128.198 44.0443 127.447 45.2738 127.015L45.4455 126.953L45.2682 126.911C43.9993 126.614 42.8242 125.986 41.8551 125.087C40.8861 124.188 40.1555 123.048 39.7331 121.777L39.6753 121.597L39.6344 121.78C39.3515 123.09 38.7478 124.302 37.8812 125.3C37.0146 126.298 35.914 127.048 34.6845 127.48L34.5103 127.544Z" fill="#1C1A4A"/>
</g>
<defs>
<clipPath id="clip0_49_1982">
<rect width="49" height="37" fill="white" transform="translate(63)"/>
</clipPath>
<clipPath id="clip1_49_1982">
<rect width="49" height="37" fill="white" transform="translate(0 100)"/>
</clipPath>
</defs>
</svg>
