<svg width="88" height="88" viewBox="0 0 88 88" fill="none" xmlns="http://www.w3.org/2000/svg">
<g clip-path="url(#clip0_194_9144)" filter="url(#filter0_d_194_9144)">
<path d="M5.69389 39.5212C5.69203 46.2428 7.44831 52.8059 10.7878 58.5907L5.37451 78.3557L25.6015 73.0521C31.196 76.0977 37.4642 77.6936 43.834 77.694H43.8508C64.8787 77.694 81.9959 60.583 82.0049 39.5513C82.0089 29.36 78.0437 19.7767 70.8393 12.5668C63.6362 5.35752 54.0564 1.38511 43.8492 1.38046C22.8189 1.38046 5.70288 18.4905 5.6942 39.5212" fill="url(#paint0_linear_194_9144)"/>
<path d="M4.33178 39.5088C4.32961 46.4722 6.14884 53.2701 9.60744 59.262L4 79.7355L24.9522 74.2419C30.7253 77.3895 37.2251 79.049 43.8391 79.0515H43.8561C65.6384 79.0515 83.3705 61.325 83.3798 39.5405C83.3836 28.9829 79.2757 19.0552 71.8139 11.587C64.3513 4.11969 54.4288 0.00434109 43.8561 0C22.0701 0 4.34047 17.724 4.33178 39.5088ZM16.8096 58.2301L16.0273 56.9882C12.7386 51.7591 11.0028 45.7163 11.0053 39.5113C11.0121 21.4043 25.7482 6.67287 43.8685 6.67287C52.6437 6.67659 60.8905 10.0974 67.0933 16.3039C73.2958 22.511 76.7088 30.7622 76.7067 39.538C76.6986 57.645 61.9622 72.3783 43.8561 72.3783H43.8431C37.9476 72.3752 32.1656 70.7919 27.1231 67.8L25.9231 67.0884L13.4896 70.3482L16.8096 58.2301Z" fill="url(#paint1_linear_194_9144)"/>
<path d="M33.9776 22.9916C33.2378 21.3473 32.4592 21.3141 31.7556 21.2853C31.1795 21.2605 30.5209 21.2623 29.8629 21.2623C29.2043 21.2623 28.1342 21.5101 27.2297 22.4977C26.3243 23.4862 23.7729 25.875 23.7729 30.7336C23.7729 35.5926 27.3119 40.2881 27.8052 40.9476C28.2992 41.6059 34.6371 51.8955 44.675 55.854C53.0173 59.1436 54.715 58.4893 56.5255 58.3243C58.3364 58.16 62.3686 55.9361 63.1912 53.6301C64.0145 51.3243 64.0145 49.3479 63.7677 48.9349C63.5209 48.5234 62.8622 48.2763 61.8747 47.7826C60.8867 47.2887 56.0316 44.8995 55.1264 44.5699C54.221 44.2406 53.5627 44.0763 52.9041 45.0651C52.2455 46.0524 50.3543 48.2763 49.7779 48.9349C49.2021 49.595 48.6257 49.6772 47.6384 49.1833C46.6502 48.6878 43.4697 47.6462 39.6964 44.2822C36.7605 41.6645 34.7785 38.4319 34.2024 37.4431C33.6263 36.4558 34.1407 35.9206 34.6359 35.4285C35.0796 34.9861 35.6238 34.2754 36.1181 33.6989C36.6105 33.1222 36.7748 32.7107 37.1041 32.0521C37.4337 31.3929 37.2688 30.8161 37.0223 30.3222C36.7748 29.8282 34.8557 24.9442 33.9776 22.9916Z" fill="white"/>
</g>
<defs>
<filter id="filter0_d_194_9144" x="0" y="0" width="87.3799" height="88" filterUnits="userSpaceOnUse" color-interpolation-filters="sRGB">
<feFlood flood-opacity="0" result="BackgroundImageFix"/>
<feColorMatrix in="SourceAlpha" type="matrix" values="0 0 0 0 0 0 0 0 0 0 0 0 0 0 0 0 0 0 127 0" result="hardAlpha"/>
<feOffset dy="4"/>
<feGaussianBlur stdDeviation="2"/>
<feComposite in2="hardAlpha" operator="out"/>
<feColorMatrix type="matrix" values="0 0 0 0 0 0 0 0 0 0 0 0 0 0 0 0 0 0 0.25 0"/>
<feBlend mode="normal" in2="BackgroundImageFix" result="effect1_dropShadow_194_9144"/>
<feBlend mode="normal" in="SourceGraphic" in2="effect1_dropShadow_194_9144" result="shape"/>
</filter>
<linearGradient id="paint0_linear_194_9144" x1="3836.89" y1="7698.9" x2="3836.89" y2="1.38046" gradientUnits="userSpaceOnUse">
<stop stop-color="#1FAF38"/>
<stop offset="1" stop-color="#60D669"/>
</linearGradient>
<linearGradient id="paint1_linear_194_9144" x1="3972.99" y1="7973.55" x2="3972.99" y2="0" gradientUnits="userSpaceOnUse">
<stop stop-color="#F9F9F9"/>
<stop offset="1" stop-color="white"/>
</linearGradient>
<clipPath id="clip0_194_9144">
<rect width="79.3798" height="80" fill="white" transform="translate(4)"/>
</clipPath>
</defs>
</svg>
