<svg width="173" height="153" viewBox="0 0 173 153" fill="none" xmlns="http://www.w3.org/2000/svg">
<path d="M159.043 57.7059L154.153 68.2742L154.252 68.4073L154.755 69.0819L158.855 60.2213L159.264 59.3372L159.45 60.3466L163.155 80.349L164.292 81.8752L159.847 57.874C159.829 57.7805 159.785 57.6933 159.719 57.6243C159.653 57.555 159.57 57.508 159.481 57.4892C159.392 57.4705 159.301 57.4814 159.223 57.5204C159.144 57.5589 159.081 57.6243 159.043 57.7059ZM162.566 80.5916L154.891 70.2973C154.832 70.3771 154.76 70.4471 154.679 70.5042C154.541 70.6015 154.381 70.6595 154.212 70.6748L154.14 70.6815L162.059 81.3037L162.776 81.7248L162.566 80.5916ZM163.886 82.3616L163.409 81.7217L163.517 82.3055L163.573 82.6063L163.886 82.3616ZM163.23 82.8751L163.341 82.7876L163.07 82.6284L163.028 82.6042L163.23 82.8751ZM162.945 83.5251L161.661 81.8017L144.114 71.5068L143.216 70.9788L144.2 70.892L152.951 70.1187L152.624 69.6806L152.423 69.4103L152.632 69.2467L141.748 70.2078C141.658 70.2157 141.576 70.254 141.513 70.3161C141.449 70.3779 141.408 70.4614 141.396 70.5538C141.382 70.6465 141.398 70.7426 141.441 70.8293C141.483 70.9163 141.55 70.9892 141.631 71.0374L162.969 83.556L162.945 83.5251ZM153.312 69.5706L153.673 70.0552L154.109 70.0168C154.177 70.0106 154.242 69.9869 154.298 69.9478C154.353 69.9089 154.397 69.8556 154.426 69.7927L154.46 69.7182L153.967 69.0574L153.312 69.5706ZM163.39 83.6052L163.245 83.7183L164.036 84.1819C164.107 84.2241 164.186 84.2454 164.265 84.2428C164.344 84.241 164.419 84.2157 164.481 84.1711C164.544 84.1256 164.592 84.062 164.619 83.9868C164.647 83.9121 164.654 83.8288 164.639 83.7462L164.458 82.7696L163.39 83.6052Z" fill="#D1D1D1" stroke="#D1D1D1"/>
<path d="M5.5659 81.7744C32.4994 37.6421 105.437 25.5517 150.887 65.3114" stroke="#D1D1D1" stroke-width="2" stroke-dasharray="8 8"/>
</svg>
