<svg width="28" height="33" viewBox="0 0 28 33" fill="none" xmlns="http://www.w3.org/2000/svg">
<path d="M26.9708 1.1529L11.5255 0.553023C11.4504 0.549632 11.3754 0.561178 11.3048 0.586992C11.2343 0.612805 11.1695 0.652372 11.1143 0.703399C11.0591 0.754426 11.0146 0.815898 10.9834 0.884251C10.9522 0.952605 10.9348 1.02648 10.9323 1.10159L10.8404 3.44776L0.948505 5.25112C0.799887 5.27916 0.668317 5.36466 0.58234 5.48909C0.496363 5.61351 0.462913 5.76682 0.489248 5.91575L4.19012 26.1607C4.3482 26.8656 5.10109 26.5611 5.58299 26.4884V31.981C5.58295 32.0561 5.5977 32.1304 5.6264 32.1997C5.6551 32.2691 5.69719 32.3321 5.75026 32.3852C5.80333 32.4382 5.86634 32.4803 5.93569 32.509C6.00504 32.5377 6.07937 32.5525 6.15442 32.5524H18.2286C18.3804 32.5517 18.5258 32.4913 18.6334 32.3843L23.4567 27.561C23.5579 27.4496 23.6174 27.3066 23.6248 27.1562V22.7565C23.6325 22.7523 26.1443 22.8561 26.1549 22.8527C26.3025 22.8526 26.4443 22.7953 26.5506 22.693C26.657 22.5906 26.7195 22.4511 26.7252 22.3036L27.5193 1.7461C27.5223 1.67112 27.5105 1.59629 27.4845 1.52589C27.4586 1.45548 27.419 1.39089 27.368 1.33579C27.3171 1.2807 27.2558 1.23619 27.1876 1.20481C27.1195 1.17343 27.0458 1.15579 26.9708 1.1529ZM5.21133 25.394L1.71636 6.2729L15.7917 3.70648L16.5888 8.07255H6.15441C6.07936 8.0725 6.00504 8.08725 5.93569 8.11595C5.86634 8.14465 5.80333 8.18674 5.75026 8.23982C5.69719 8.29289 5.6551 8.3559 5.62639 8.42525C5.59769 8.49459 5.58294 8.56892 5.58299 8.64397V25.3267L5.21133 25.394ZM6.72584 9.2154H22.482V26.5848H18.2286C18.1536 26.5848 18.0792 26.5995 18.0099 26.6282C17.9405 26.6569 17.8775 26.699 17.8245 26.7521C17.7714 26.8051 17.7293 26.8682 17.7006 26.9375C17.6719 27.0069 17.6571 27.0812 17.6572 27.1562V31.4096H6.72584V9.2154ZM18.8 30.6015V27.7277H21.6739L18.8 30.6015ZM25.6053 21.6886L23.6248 21.613V8.64397C23.6249 8.56892 23.6101 8.49459 23.5814 8.42525C23.5527 8.3559 23.5106 8.29289 23.4575 8.23982C23.4045 8.18675 23.3415 8.14466 23.2721 8.11596C23.2028 8.08725 23.1284 8.0725 23.0534 8.07255H17.7502L16.8134 2.93919C16.7856 2.79045 16.7002 2.65873 16.5757 2.57272C16.4512 2.4867 16.2978 2.45335 16.1488 2.47993L11.9921 3.23773L12.0517 1.71708L26.3553 2.27233L25.6053 21.6886Z" fill="black"/>
</svg>
